<?xml version="1.0" standalone="no"?>
<!DOCTYPE svg PUBLIC "-//W3C//DTD SVG 20010904//EN"
 "http://www.w3.org/TR/2001/REC-SVG-20010904/DTD/svg10.dtd">
<svg version="1.0" xmlns="http://www.w3.org/2000/svg"
 width="837.000000pt" height="867.000000pt" viewBox="0 0 837.000000 867.000000"
 preserveAspectRatio="xMidYMid meet">
<metadata>
Created by potrace 1.10, written by Peter Selinger 2001-2011
</metadata>
<g transform="translate(0.000000,867.000000) scale(0.100000,-0.100000)"
fill="#3d85c6" stroke="none">
<path d="M5130 8655 c0 -8 -9 -19 -20 -25 -12 -6 -20 -21 -20 -35 0 -20 -5
-25 -26 -25 -30 0 -83 -48 -111 -100 -33 -61 -160 -261 -181 -286 -5 -6 -13
-20 -16 -32 -4 -12 -12 -22 -17 -22 -5 0 -9 -5 -9 -10 0 -11 -34 -63 -57 -88
-7 -7 -13 -17 -13 -22 0 -16 -61 -70 -80 -70 -9 0 -23 -7 -30 -15 -7 -8 -20
-15 -30 -15 -10 0 -23 -7 -30 -15 -7 -8 -23 -15 -37 -15 -30 0 -83 -38 -83
-60 0 -21 -41 -60 -63 -60 -9 0 -26 -9 -37 -20 -20 -20 -20 -35 -23 -1008 -4
-1159 -9 -2384 -19 -4362 l-7 -1435 27 -25 c36 -34 92 -105 92 -118 0 -6 6
-15 13 -19 18 -11 77 -89 77 -101 0 -6 6 -15 13 -19 18 -11 77 -89 77 -101 0
-6 6 -15 13 -19 18 -11 77 -89 77 -101 0 -6 6 -15 13 -19 18 -11 77 -89 77
-101 0 -6 6 -15 13 -19 17 -10 137 -169 137 -181 0 -5 19 -29 42 -52 38 -38
46 -41 78 -35 74 13 484 27 515 18 23 -7 40 -5 73 8 23 10 42 23 42 28 0 6 12
17 28 25 15 8 61 46 102 85 41 39 79 71 83 71 9 0 30 19 121 105 62 59 89 82
137 114 19 13 42 38 49 55 16 35 55 74 88 87 l24 9 -4 213 -3 212 195 98 c107
54 202 98 210 98 8 0 24 12 35 27 11 14 46 52 78 83 31 31 57 63 57 70 0 8 25
40 55 73 30 32 55 62 55 67 0 5 8 17 18 27 9 9 39 46 67 82 27 36 59 76 72 90
12 14 44 53 70 87 26 34 77 99 113 145 35 46 83 102 106 125 l43 41 -8 164
c-4 89 -11 171 -15 180 -8 18 7 27 124 76 19 8 48 21 63 28 16 8 35 14 42 14
7 0 26 6 42 14 15 8 47 22 71 30 102 38 129 49 154 62 14 8 37 14 50 14 12 1
41 13 63 28 30 21 41 36 45 62 4 29 10 36 32 38 15 2 41 17 57 35 27 27 31 38
31 86 1 31 7 67 15 81 8 14 15 41 15 60 0 19 7 44 15 54 8 11 15 34 15 52 0
17 7 45 15 60 8 16 15 45 15 65 0 19 7 44 15 55 8 10 15 34 15 52 0 18 5 43
12 55 24 43 49 257 30 257 -5 0 -15 -21 -22 -47 -7 -27 -16 -52 -21 -58 -8
-11 -57 -184 -135 -475 -8 -30 -19 -64 -24 -75 -4 -11 -17 -47 -26 -80 -32
-104 -61 -167 -85 -180 -68 -38 -191 -95 -207 -95 -6 0 -23 -6 -39 -14 -15 -8
-48 -22 -73 -31 -25 -10 -57 -23 -72 -31 -14 -8 -33 -14 -41 -14 -9 0 -28 -6
-44 -14 -38 -19 -73 -33 -101 -41 -15 -4 -33 -27 -54 -68 -29 -58 -31 -72 -38
-209 -6 -116 -11 -153 -25 -175 -25 -38 -135 -175 -155 -193 -10 -8 -37 -40
-61 -70 -43 -53 -57 -70 -124 -149 -58 -69 -102 -126 -115 -151 -13 -24 -60
-84 -99 -125 -10 -11 -32 -47 -47 -79 -15 -33 -36 -61 -46 -64 -10 -2 -18 -8
-18 -12 0 -7 -340 -180 -355 -180 -21 0 -65 -44 -65 -65 0 -13 -7 -28 -16 -33
-28 -16 -43 -83 -44 -197 0 -60 -5 -129 -9 -152 -13 -66 -157 -253 -196 -253
-8 0 -15 -7 -15 -15 0 -8 -7 -15 -15 -15 -8 0 -15 -7 -15 -15 0 -8 -7 -15 -15
-15 -8 0 -28 -13 -43 -30 -16 -16 -34 -30 -40 -30 -5 0 -12 -7 -16 -15 -3 -8
-11 -15 -18 -15 -7 0 -19 -13 -26 -30 -7 -16 -21 -32 -31 -35 -10 -3 -24 -17
-32 -31 -7 -14 -22 -31 -34 -37 -32 -18 -161 -28 -410 -33 l-230 -3 -50 75
c-27 41 -57 83 -65 92 -30 32 -170 221 -170 229 0 4 -11 18 -23 30 -13 12 -36
41 -53 65 -16 24 -37 52 -46 62 -10 11 -30 38 -45 60 -15 23 -30 43 -34 46 -7
7 -158 202 -192 250 -26 37 -27 41 -13 67 12 24 15 378 21 2498 8 2572 9 3156
7 3215 -4 109 15 918 22 932 4 9 28 23 52 32 95 32 203 107 275 191 38 44 69
86 69 93 0 6 4 12 9 12 5 0 13 10 17 23 4 12 20 38 35 58 16 20 29 39 29 42 0
3 14 26 30 50 17 25 30 50 30 56 0 6 4 11 9 11 5 0 13 10 17 23 4 12 9 24 13
27 12 10 51 69 51 77 0 5 23 29 51 53 29 25 71 65 94 88 26 27 45 40 49 33 12
-19 26 -12 26 14 0 23 -3 25 -50 25 -37 0 -50 -4 -50 -15z"/>
<path d="M3125 8623 c-38 -8 -96 -18 -129 -23 -32 -4 -63 -13 -69 -19 -6 -6
-29 -11 -52 -11 -22 -1 -51 -7 -65 -15 -14 -8 -41 -14 -60 -15 -19 0 -46 -6
-60 -13 -15 -8 -56 -17 -92 -20 -37 -3 -77 -12 -90 -18 -13 -7 -28 -15 -35
-18 -7 -3 -46 -30 -88 -58 -42 -29 -81 -53 -85 -53 -7 0 -95 -54 -126 -77 -21
-16 -50 -33 -71 -42 -11 -6 -24 -15 -28 -20 -3 -6 -15 -11 -26 -11 -10 0 -19
-5 -19 -10 0 -6 -10 -15 -22 -20 -13 -6 -36 -19 -53 -30 -16 -11 -39 -24 -50
-30 -11 -6 -33 -19 -50 -30 -16 -11 -39 -24 -50 -30 -11 -6 -33 -19 -50 -30
-16 -11 -39 -24 -50 -30 -11 -6 -33 -19 -50 -30 -16 -11 -39 -24 -50 -30 -11
-6 -33 -19 -50 -30 -16 -11 -39 -24 -50 -30 -11 -6 -33 -19 -50 -30 -16 -11
-39 -24 -50 -30 -11 -5 -27 -14 -35 -19 -8 -5 -22 -12 -30 -16 -22 -9 -56 -29
-74 -44 -15 -13 -17 -43 -15 -265 l1 -251 -33 -17 c-19 -9 -46 -17 -60 -18
-14 0 -34 -7 -45 -15 -10 -8 -28 -15 -40 -15 -11 0 -29 -7 -40 -15 -10 -8 -31
-15 -45 -15 -14 0 -34 -7 -45 -15 -10 -8 -28 -15 -40 -15 -11 0 -29 -7 -40
-15 -10 -8 -33 -15 -50 -15 -17 0 -37 -7 -44 -15 -7 -8 -23 -15 -36 -15 -29 0
-103 -28 -126 -48 -11 -9 -18 -29 -18 -49 0 -19 -5 -44 -11 -55 -6 -11 -15
-44 -19 -72 -10 -57 -26 -126 -42 -171 -6 -16 -14 -50 -19 -75 -19 -103 -32
-157 -45 -188 -8 -18 -14 -47 -14 -65 -1 -18 -7 -43 -15 -57 -8 -14 -15 -43
-15 -65 0 -22 -7 -51 -15 -65 -8 -14 -15 -41 -15 -60 0 -19 -7 -46 -15 -60 -8
-14 -14 -39 -15 -56 0 -18 -7 -45 -15 -60 -8 -16 -15 -45 -15 -65 0 -20 -7
-50 -15 -65 -8 -16 -15 -41 -15 -55 0 -15 -7 -43 -15 -62 -8 -20 -15 -52 -15
-71 0 -18 -7 -47 -15 -62 -8 -16 -15 -42 -15 -57 0 -16 -5 -38 -12 -50 -6 -12
-15 -42 -19 -67 -7 -52 -26 -132 -41 -175 -6 -16 -14 -50 -18 -75 -4 -25 -12
-58 -19 -73 -6 -16 -11 -43 -11 -60 -1 -18 -7 -43 -15 -57 -8 -14 -14 -40 -15
-58 0 -18 -5 -43 -11 -54 -6 -11 -15 -44 -20 -72 -4 -28 -13 -80 -19 -116 -6
-36 -12 -75 -12 -88 -1 -25 42 -122 54 -122 5 0 8 -10 8 -22 1 -13 12 -41 25
-63 14 -22 27 -47 31 -55 3 -8 10 -22 15 -30 5 -8 13 -25 18 -37 6 -11 15 -24
20 -28 6 -3 11 -15 11 -25 0 -11 10 -24 21 -31 21 -11 21 -12 -12 -41 -58 -51
-82 -72 -146 -127 -59 -51 -63 -57 -63 -97 0 -24 5 -44 10 -44 6 0 10 9 10 19
0 11 20 34 48 55 27 19 84 72 126 117 l78 81 -7 46 c-6 44 -109 255 -177 361
-35 57 -35 84 2 191 16 47 40 135 54 195 14 61 41 173 61 250 20 77 40 158 45
180 5 22 18 76 30 120 12 44 29 112 36 150 8 39 25 113 39 165 13 52 34 136
45 185 11 50 36 149 54 220 63 241 85 330 106 425 11 52 26 118 34 145 8 28
19 75 26 105 17 76 52 133 103 167 25 16 133 58 253 97 115 38 224 74 243 80
20 7 45 28 65 55 l31 43 -3 182 c-3 207 4 239 66 298 35 34 216 149 375 238
39 23 79 45 87 50 8 5 29 15 45 24 27 13 71 36 216 114 24 13 60 36 79 50 19
15 51 36 71 47 20 11 82 50 136 86 143 96 159 103 384 159 362 92 388 97 412
84 21 -12 147 -174 147 -189 0 -7 7 -18 15 -25 8 -7 15 -23 15 -35 0 -13 7
-25 15 -29 8 -3 20 -16 25 -28 6 -13 18 -34 28 -48 9 -14 26 -41 37 -59 11
-18 39 -63 63 -99 23 -36 42 -69 42 -72 0 -3 15 -14 34 -24 19 -10 37 -24 40
-32 3 -7 51 -36 108 -64 57 -29 114 -62 128 -74 14 -13 46 -35 71 -51 43 -27
47 -32 53 -79 3 -28 6 -1534 6 -3347 l0 -3295 -31 -30 c-17 -16 -119 -146
-227 -289 -107 -143 -201 -264 -209 -268 -7 -4 -13 -13 -13 -19 0 -8 -51 -80
-70 -98 -3 -3 -17 -23 -32 -45 -15 -22 -39 -53 -53 -69 -14 -16 -25 -35 -25
-42 0 -6 -17 -22 -37 -34 -37 -22 -42 -22 -143 -11 -58 6 -143 11 -190 11 -47
0 -135 3 -196 6 l-110 7 -56 51 c-49 45 -159 143 -224 201 -12 11 -39 34 -59
50 -43 36 -107 101 -119 122 -20 36 -38 147 -45 275 -6 125 -18 175 -36 156
-22 -22 -34 -322 -15 -373 6 -16 20 -27 38 -31 28 -6 29 -8 25 -47 -4 -37 -1
-46 25 -70 17 -16 46 -43 64 -60 19 -18 56 -50 84 -72 45 -36 77 -65 169 -150
77 -71 210 -175 224 -175 6 0 11 -4 11 -10 0 -13 67 -13 72 1 6 17 192 21 214
4 29 -22 335 -21 369 1 14 9 25 22 25 28 0 6 12 25 28 42 47 52 92 111 92 122
0 6 6 15 13 19 8 4 103 127 212 273 109 146 204 269 212 273 7 4 13 14 13 21
0 7 20 34 45 60 l45 48 0 3382 c0 3209 -1 3384 -17 3398 -10 9 -33 23 -51 32
-30 16 -32 20 -26 51 5 28 2 40 -17 60 -14 14 -35 25 -50 25 -15 0 -32 7 -39
15 -7 8 -20 15 -30 15 -10 0 -23 7 -30 15 -7 8 -18 15 -25 15 -15 0 -124 57
-147 78 -10 8 -18 21 -18 27 0 7 -7 15 -15 19 -8 3 -15 15 -15 26 0 11 -7 23
-15 26 -8 4 -15 13 -15 20 0 8 -7 17 -15 20 -8 4 -15 15 -15 25 0 11 -7 22
-15 25 -8 4 -15 12 -15 19 0 7 -7 18 -15 25 -8 7 -15 21 -15 31 0 11 -5 19
-10 19 -6 0 -15 10 -20 23 -15 33 -33 61 -47 70 -7 4 -13 16 -13 26 0 10 -7
24 -15 31 -8 7 -15 18 -15 24 0 6 -20 34 -45 61 -25 28 -45 57 -45 65 0 21
-42 58 -71 63 -13 3 -55 -2 -94 -10z"/>
<path d="M5246 8611 c5 -6 32 -17 60 -25 27 -8 74 -22 104 -31 30 -9 93 -25
140 -36 47 -11 115 -28 151 -39 36 -11 72 -20 80 -20 26 0 147 -74 409 -249
14 -10 52 -32 85 -51 33 -18 67 -39 75 -45 8 -7 26 -16 40 -20 14 -4 36 -15
50 -25 14 -9 63 -37 110 -62 47 -25 101 -56 121 -69 19 -13 75 -46 123 -74
108 -62 203 -131 230 -168 20 -27 21 -40 18 -190 -4 -230 1 -260 48 -311 31
-33 51 -45 92 -54 71 -17 361 -118 423 -149 75 -37 103 -68 125 -143 22 -75
61 -235 89 -365 11 -49 29 -124 39 -165 11 -41 36 -147 57 -235 20 -88 43
-180 50 -205 7 -25 25 -99 39 -165 15 -66 31 -133 36 -150 9 -27 40 -161 60
-260 25 -121 158 -634 175 -678 25 -62 19 -95 -37 -192 -28 -49 -57 -102 -64
-116 -8 -14 -23 -34 -34 -44 -11 -10 -20 -24 -20 -32 0 -8 -9 -31 -20 -53 -23
-46 -26 -100 -6 -138 13 -25 110 -122 204 -205 18 -15 32 -32 32 -37 0 -6 9
-10 20 -10 17 0 20 7 20 46 0 25 -4 43 -9 40 -7 -5 -66 43 -141 114 -14 14
-43 36 -63 50 -45 30 -46 45 -7 90 16 19 29 42 30 51 0 9 7 22 15 29 8 7 15
21 15 31 0 10 5 21 11 24 5 4 14 17 20 28 5 12 13 29 18 37 5 8 17 33 26 55
10 22 22 47 26 55 5 8 13 25 19 38 5 12 16 22 25 22 8 0 15 9 15 20 0 13 -7
20 -19 20 -24 0 -31 19 -31 80 0 27 -4 52 -10 55 -5 3 -10 24 -10 46 0 22 -6
52 -14 67 -7 15 -16 51 -19 81 -4 30 -11 59 -17 65 -5 5 -10 26 -10 46 -1 19
-7 46 -15 60 -8 14 -15 43 -15 65 0 22 -7 51 -15 65 -8 14 -14 39 -15 55 0 17
-6 50 -14 75 -22 69 -36 129 -46 189 -5 29 -13 58 -19 64 -6 6 -11 26 -11 44
0 19 -7 50 -15 70 -8 19 -15 50 -15 67 -1 17 -7 42 -15 56 -8 14 -15 43 -15
65 0 22 -7 51 -15 65 -8 14 -14 40 -15 58 0 18 -7 49 -15 69 -8 19 -15 47 -15
62 0 14 -7 39 -15 55 -8 15 -15 45 -15 65 0 20 -7 49 -15 65 -8 15 -15 41 -15
57 0 17 -7 46 -15 66 -8 19 -15 50 -15 67 -1 17 -7 42 -15 56 -8 14 -15 43
-15 65 0 22 -7 51 -15 65 -8 14 -14 40 -15 58 0 18 -7 49 -15 69 -8 19 -15 57
-15 84 0 85 -54 148 -128 149 -15 0 -36 7 -46 15 -11 8 -32 15 -47 15 -14 0
-32 7 -39 15 -7 8 -24 15 -39 15 -15 0 -35 6 -46 14 -11 7 -31 16 -45 19 -34
7 -89 27 -122 43 -14 8 -38 14 -51 14 -14 0 -28 4 -31 9 -3 5 -21 12 -39 15
-29 5 -34 11 -43 49 -10 45 -2 383 10 427 6 21 1 32 -30 63 -21 20 -42 37 -49
37 -15 0 -74 31 -115 60 -37 27 -66 45 -90 56 -8 4 -33 19 -55 33 -56 36 -77
49 -100 61 -11 6 -33 19 -50 30 -16 11 -39 24 -50 30 -11 6 -33 19 -50 30 -16
11 -39 24 -50 30 -11 6 -33 19 -50 30 -16 11 -39 24 -50 30 -11 6 -33 19 -50
30 -16 11 -37 23 -45 27 -8 4 -43 26 -77 50 -35 24 -70 43 -78 43 -8 0 -15 3
-15 8 0 4 -23 21 -51 37 -28 17 -63 38 -78 47 -14 10 -32 21 -39 24 -8 4 -28
20 -45 35 -26 24 -41 29 -82 29 -27 1 -61 7 -75 15 -14 8 -41 15 -60 15 -19 0
-46 7 -60 15 -14 8 -42 14 -63 15 -21 0 -48 5 -59 11 -45 24 -283 51 -262 30z"/>
<path d="M5217 8473 c-4 -3 -7 -14 -7 -23 0 -9 -13 -27 -30 -40 -16 -14 -29
-30 -30 -35 0 -12 65 -34 130 -46 53 -9 122 -26 165 -41 17 -6 50 -14 75 -18
105 -19 132 -33 200 -102 162 -165 270 -277 450 -468 107 -113 226 -237 265
-277 38 -39 114 -117 169 -172 l98 -102 53 36 c29 19 58 35 64 35 20 0 12 28
-13 48 -14 10 -118 118 -233 238 -114 120 -282 296 -374 389 -91 94 -221 229
-288 300 -68 72 -128 132 -134 134 -7 2 -19 9 -27 16 -8 7 -31 15 -50 18 -41
6 -112 24 -155 39 -16 6 -50 14 -75 18 -25 4 -58 12 -73 19 -16 6 -41 11 -56
11 -15 0 -36 7 -47 15 -20 15 -66 20 -77 8z"/>
<path d="M3080 8450 c-19 -4 -48 -12 -65 -18 -47 -16 -115 -33 -174 -42 -29
-5 -58 -13 -64 -19 -6 -6 -24 -11 -41 -11 -16 0 -53 -8 -83 -17 -60 -20 -26
13 -613 -593 -178 -184 -366 -376 -417 -427 l-92 -92 30 -23 c16 -13 44 -35
61 -49 l32 -26 45 41 c24 22 54 52 65 65 12 13 71 74 131 135 61 61 253 261
429 444 175 183 335 346 356 362 24 19 49 30 70 30 17 0 41 5 52 11 11 6 44
15 72 19 57 10 125 26 171 42 17 6 59 14 95 19 90 12 93 14 79 41 -16 31 -89
118 -97 117 -4 -1 -23 -5 -42 -9z"/>
<path d="M5083 8339 c-28 -18 -56 -55 -138 -184 -34 -52 -66 -116 -81 -157
-22 -62 -6 -98 104 -234 53 -67 131 -164 173 -215 41 -52 86 -108 100 -125 13
-17 58 -72 99 -121 41 -50 107 -130 145 -179 136 -171 152 -189 168 -203 9 -7
17 -18 17 -23 0 -12 99 -141 112 -146 5 -2 15 -16 23 -32 8 -15 36 -42 62 -59
38 -26 55 -31 80 -26 39 7 103 36 160 73 23 15 90 56 148 92 58 36 135 84 172
107 38 23 92 57 122 75 58 36 131 105 131 125 0 15 -16 17 -25 3 -3 -5 -15
-10 -25 -10 -10 0 -25 -7 -34 -15 -8 -8 -19 -15 -24 -15 -5 0 -28 -13 -50 -30
-23 -16 -48 -30 -56 -30 -8 0 -19 -6 -23 -12 -8 -13 -32 -30 -68 -48 -11 -6
-33 -19 -50 -30 -16 -11 -39 -24 -50 -30 -11 -6 -32 -18 -47 -28 -25 -16 -138
-87 -183 -115 -11 -6 -39 -27 -62 -44 -46 -37 -66 -35 -87 6 -8 14 -42 60 -76
101 -34 41 -76 93 -93 114 -18 22 -39 46 -48 55 -8 9 -23 30 -34 46 -10 17
-35 48 -56 70 -21 22 -57 65 -81 96 -80 103 -143 183 -159 200 -9 9 -40 47
-68 84 -29 37 -57 73 -64 80 -7 7 -24 27 -39 46 -15 19 -54 66 -85 104 -32 39
-76 93 -98 120 -22 28 -52 63 -67 78 -36 37 -35 55 5 108 18 24 37 51 40 59 4
8 16 29 27 45 11 17 23 37 27 45 3 8 9 17 13 20 10 8 100 165 100 175 0 11
-27 4 -57 -16z"/>
<path d="M3230 8297 c0 -7 5 -18 11 -24 13 -13 33 -47 48 -80 6 -13 15 -23 21
-23 5 0 10 -9 10 -20 0 -11 7 -23 15 -26 8 -4 15 -12 15 -19 0 -7 7 -18 15
-25 8 -7 15 -21 15 -31 0 -11 4 -19 9 -19 10 0 34 -38 47 -72 3 -9 14 -18 25
-21 19 -5 27 -27 9 -27 -10 0 -59 -51 -118 -125 -22 -27 -56 -68 -76 -89 -20
-22 -36 -43 -36 -47 0 -5 -11 -21 -25 -36 -14 -15 -36 -39 -48 -53 -13 -14
-45 -54 -72 -90 -27 -36 -62 -76 -76 -90 -14 -14 -35 -38 -45 -55 -10 -16 -28
-41 -40 -55 -19 -21 -68 -80 -271 -329 -16 -19 -33 -39 -40 -46 -7 -7 -36 -44
-65 -81 -28 -38 -57 -73 -63 -79 -7 -5 -22 -24 -34 -42 -20 -29 -24 -31 -49
-22 -14 6 -29 13 -32 17 -7 9 -61 46 -80 55 -8 4 -28 16 -45 27 -16 11 -38 23
-47 26 -10 4 -18 10 -18 14 0 4 -10 12 -22 19 -13 6 -36 20 -53 31 -16 11 -39
24 -50 30 -11 6 -33 19 -50 30 -16 11 -37 23 -45 27 -8 4 -41 25 -75 48 -33
23 -67 44 -75 48 -8 4 -28 16 -45 26 -16 11 -43 20 -58 20 -24 1 -26 -1 -17
-18 11 -22 117 -107 147 -119 21 -8 47 -24 258 -159 181 -117 282 -172 313
-173 38 0 115 47 150 92 18 24 54 71 80 106 76 103 103 136 187 237 83 101
109 133 314 386 69 85 159 195 200 244 42 50 82 100 89 110 6 11 26 40 42 65
30 46 39 90 19 90 -7 0 -9 9 -6 21 4 14 -7 44 -29 84 -19 35 -34 77 -34 94 0
24 -4 31 -19 31 -11 0 -27 12 -36 28 -10 15 -38 44 -63 65 -47 37 -82 48 -82
24z"/>
<path d="M6326 8022 c-3 -5 1 -12 9 -16 8 -3 15 -10 15 -16 0 -6 19 -28 43
-48 81 -71 452 -447 477 -485 27 -40 55 -45 54 -9 0 12 -1 64 -2 116 l-2 94
-52 27 c-29 15 -67 38 -85 51 -17 13 -37 24 -43 24 -7 0 -29 14 -50 30 -21 17
-40 30 -44 30 -3 0 -40 24 -83 52 -77 52 -92 63 -116 83 -7 6 -32 21 -57 34
-25 13 -48 28 -51 33 -4 7 -9 7 -13 0z"/>
<path d="M1998 7991 c-1 -4 -21 -19 -44 -32 -23 -13 -69 -43 -103 -66 -34 -24
-64 -43 -66 -43 -2 0 -32 -19 -67 -42 -88 -59 -100 -67 -123 -78 -11 -6 -33
-19 -50 -30 -16 -11 -39 -24 -50 -29 -44 -19 -52 -42 -58 -158 -5 -82 -3 -113
5 -113 14 0 78 71 78 87 0 6 10 19 23 27 12 9 103 96 202 194 99 98 204 199
233 224 28 26 52 52 52 58 0 12 -27 14 -32 1z"/>
<path d="M4665 7794 c-38 -19 -81 -40 -95 -47 -16 -8 -26 -23 -28 -40 -4 -31
7 -33 50 -11 44 23 68 12 113 -52 37 -52 60 -79 118 -144 13 -14 45 -54 72
-90 27 -36 54 -69 60 -75 7 -5 27 -30 45 -55 18 -25 38 -49 45 -55 6 -5 33
-39 60 -75 27 -36 59 -76 71 -90 24 -27 59 -69 164 -196 36 -44 71 -85 77 -92
7 -7 13 -17 13 -21 0 -10 107 -41 141 -41 14 0 34 -7 45 -15 21 -16 74 -20 74
-6 0 4 -26 35 -58 67 -32 32 -73 79 -91 104 -19 25 -39 50 -46 55 -6 6 -32 38
-58 72 -26 34 -53 68 -60 75 -6 7 -48 58 -92 113 -44 55 -87 107 -95 115 -15
16 -80 98 -158 199 -23 30 -46 58 -50 61 -4 3 -32 37 -62 75 -30 39 -59 75
-65 81 -10 10 -30 36 -76 97 -11 15 -26 27 -32 26 -7 -1 -43 -16 -82 -35z"/>
<path d="M3571 7765 c-17 -24 -37 -50 -44 -57 -7 -7 -37 -44 -67 -83 -30 -38
-60 -74 -66 -80 -6 -5 -26 -30 -44 -55 -19 -25 -41 -52 -49 -61 -22 -22 -47
-53 -111 -134 -30 -39 -60 -74 -66 -80 -6 -5 -26 -30 -44 -55 -19 -25 -59 -74
-90 -110 -31 -36 -68 -82 -84 -103 -15 -21 -35 -45 -45 -55 -9 -9 -33 -37 -52
-62 -18 -24 -53 -62 -76 -83 -24 -22 -43 -48 -43 -58 0 -17 5 -18 43 -13 23 4
54 13 69 20 15 8 44 14 65 14 31 0 44 6 63 30 14 17 44 53 68 80 24 26 60 70
80 97 38 49 74 93 103 122 8 9 37 45 64 81 27 36 54 70 60 75 7 6 27 30 45 55
19 25 41 52 49 61 40 42 70 79 115 137 27 35 58 74 70 87 11 12 39 48 61 79
22 30 48 56 57 56 9 0 37 -13 61 -30 61 -41 81 -40 72 3 -13 66 -27 80 -125
121 -8 3 -28 15 -45 25 -45 29 -58 25 -94 -24z"/>
<path d="M4508 7648 c-17 -30 -24 -610 -9 -695 16 -84 35 -98 161 -122 58 -11
137 -27 175 -35 304 -64 490 -94 502 -82 14 14 -38 46 -83 52 -27 3 -66 12
-87 20 -20 8 -56 14 -78 14 -22 0 -49 5 -60 10 -10 6 -47 15 -82 20 -124 19
-193 32 -243 46 -28 8 -74 14 -102 14 -43 0 -52 3 -53 18 0 9 0 162 1 338 1
399 -6 465 -42 402z"/>
<path d="M3839 7575 c-11 -23 -14 -96 -14 -315 0 -157 2 -303 5 -325 l5 -40
-50 -17 c-28 -9 -72 -17 -100 -18 -27 0 -68 -7 -90 -15 -22 -8 -61 -15 -86
-15 -25 0 -54 -7 -65 -15 -11 -8 -42 -15 -74 -15 -30 0 -66 -7 -80 -15 -14 -8
-46 -14 -72 -15 -26 0 -59 -5 -75 -11 -15 -7 -50 -17 -77 -23 -28 -7 -52 -18
-54 -25 -4 -11 12 -12 79 -7 108 8 148 14 419 69 124 24 241 48 262 51 25 5
47 19 72 46 l36 40 0 318 c-1 241 -4 324 -14 347 l-14 30 -13 -30z"/>
<path d="M6890 7072 c-8 -3 -31 -17 -50 -32 -19 -15 -42 -30 -50 -33 -8 -4
-37 -20 -65 -37 -27 -16 -61 -34 -74 -40 -13 -6 -38 -21 -55 -33 -42 -30 -66
-44 -98 -58 -16 -6 -28 -14 -28 -19 0 -4 -8 -10 -17 -14 -10 -3 -31 -15 -48
-26 -16 -11 -37 -23 -45 -27 -23 -10 -75 -47 -78 -55 -2 -5 -10 -8 -17 -8 -8
0 -43 -20 -78 -44 -35 -24 -73 -47 -85 -50 -12 -4 -22 -11 -22 -16 0 -5 -9
-12 -20 -15 -20 -6 -28 -39 -11 -49 7 -5 109 41 121 55 4 5 51 34 165 102 11
7 39 24 63 40 24 15 45 27 48 27 2 0 23 14 46 30 22 17 47 30 55 30 7 0 13 3
13 8 0 4 21 19 48 35 73 42 84 50 123 80 40 29 69 35 69 14 0 -8 -7 -36 -15
-63 -8 -27 -15 -72 -15 -101 0 -29 -7 -78 -15 -110 -8 -31 -15 -84 -15 -118
-1 -33 -7 -87 -15 -120 -8 -33 -15 -83 -15 -111 0 -29 -6 -85 -14 -125 -8 -41
-17 -119 -20 -175 l-5 -101 36 -36 c55 -57 63 -51 63 47 0 46 7 120 15 163 8
43 15 97 15 119 0 23 7 77 14 120 8 44 17 113 20 154 3 41 10 102 15 135 14
86 31 216 41 317 5 48 15 96 22 107 14 23 2 42 -22 33z"/>
<path d="M1458 7043 c-2 -10 4 -70 14 -133 10 -63 18 -138 18 -165 0 -28 7
-82 15 -120 8 -39 15 -92 15 -119 0 -27 7 -86 14 -130 8 -45 17 -112 20 -151
3 -38 10 -90 15 -115 6 -25 11 -76 11 -115 2 -145 21 -179 72 -134 25 22 25
22 11 98 -7 42 -17 119 -22 171 -13 131 -30 267 -47 382 -8 53 -14 116 -14
138 0 23 -6 71 -14 108 -23 105 -27 150 -16 157 6 4 28 -7 49 -24 21 -17 42
-31 46 -31 4 0 24 -13 44 -28 20 -16 43 -32 51 -35 8 -4 29 -16 45 -27 17 -11
37 -23 45 -27 8 -4 41 -25 75 -47 65 -45 89 -60 120 -76 11 -6 32 -18 47 -28
14 -9 48 -30 75 -46 26 -16 62 -39 80 -53 31 -22 33 -23 53 -6 31 27 26 62
-10 74 -16 6 -30 14 -30 19 0 4 -8 10 -17 14 -10 3 -31 15 -48 26 -16 11 -36
23 -44 27 -15 7 -107 66 -127 80 -17 14 -48 33 -69 43 -11 6 -32 18 -47 28
-64 40 -321 198 -344 210 -13 7 -24 17 -24 21 0 7 -43 31 -55 31 -2 0 -5 -8
-7 -17z"/>
<path d="M7160 7022 c0 -10 7 -27 15 -38 8 -10 15 -29 15 -41 0 -34 33 -83 55
-83 11 0 29 -7 39 -15 11 -8 29 -15 40 -15 12 0 30 -7 40 -15 11 -8 31 -15 44
-15 13 0 37 -8 53 -17 23 -14 29 -24 29 -50 0 -19 7 -50 15 -70 8 -19 15 -50
15 -67 1 -17 7 -42 15 -56 8 -14 14 -40 15 -58 0 -18 7 -49 15 -69 8 -19 15
-45 15 -56 0 -11 6 -43 14 -71 24 -87 37 -139 46 -186 8 -43 13 -65 45 -185
29 -110 37 -142 45 -192 4 -28 12 -58 16 -65 5 -7 11 -33 15 -58 7 -42 12 -62
44 -185 25 -95 36 -140 44 -180 13 -63 31 -136 47 -186 8 -26 14 -57 14 -69 0
-12 7 -43 15 -69 8 -25 21 -73 29 -106 8 -33 19 -80 26 -105 6 -25 15 -65 19
-90 5 -25 13 -58 20 -73 17 -42 14 -124 -6 -158 -16 -28 -16 -29 2 -44 24 -17
45 -19 45 -4 0 12 22 66 46 112 8 16 14 34 14 42 0 7 7 18 15 25 19 16 19 67
0 100 -8 14 -14 39 -15 57 0 17 -5 44 -11 60 -7 15 -15 48 -20 73 -9 52 -25
116 -45 180 -8 25 -14 59 -14 75 -1 17 -7 41 -15 55 -8 14 -14 40 -15 58 0 18
-7 49 -15 69 -8 19 -15 45 -15 56 0 11 -6 43 -14 71 -24 87 -37 139 -46 186
-10 55 -27 120 -46 180 -8 25 -14 59 -14 75 -1 17 -7 41 -15 55 -8 14 -14 40
-15 58 0 18 -7 49 -15 69 -8 19 -15 45 -15 56 0 11 -6 43 -14 71 -24 87 -37
139 -46 186 -10 52 -27 119 -43 170 -6 19 -14 55 -18 80 -4 25 -11 59 -17 75
-16 47 -33 116 -41 170 -5 28 -11 58 -16 68 -7 18 -85 57 -114 57 -9 0 -25 7
-35 15 -11 8 -30 15 -42 15 -12 0 -35 6 -51 14 -51 26 -103 46 -117 46 -8 0
-19 7 -26 15 -18 21 -50 19 -50 -3z"/>
<path d="M1163 7017 c-23 -7 -48 -18 -55 -24 -6 -7 -21 -13 -33 -13 -12 0 -30
-7 -41 -15 -10 -8 -31 -15 -45 -15 -15 0 -32 -7 -39 -15 -7 -8 -25 -15 -39
-15 -15 0 -36 -7 -47 -15 -10 -8 -31 -15 -46 -15 -15 0 -30 -6 -35 -12 -13
-21 -43 -121 -43 -146 0 -13 -5 -33 -12 -45 -6 -12 -15 -42 -19 -67 -4 -25
-11 -58 -17 -75 -16 -45 -32 -114 -42 -171 -4 -28 -13 -61 -19 -72 -6 -11 -11
-31 -11 -43 0 -11 -6 -42 -14 -68 -16 -50 -34 -123 -47 -186 -7 -38 -15 -70
-44 -180 -28 -105 -37 -141 -45 -185 -10 -52 -27 -119 -43 -170 -6 -19 -14
-55 -18 -80 -4 -25 -11 -58 -17 -75 -16 -45 -32 -114 -42 -171 -4 -28 -13 -61
-19 -72 -6 -11 -11 -31 -11 -43 0 -11 -6 -42 -14 -68 -16 -50 -34 -123 -47
-186 -11 -55 -29 -124 -41 -160 -21 -61 -20 -89 6 -138 14 -26 26 -59 26 -71
0 -13 6 -29 14 -36 8 -6 16 -24 18 -38 2 -19 9 -27 23 -27 15 0 19 6 17 25 -1
14 -10 31 -19 37 -15 11 -15 19 -4 75 28 136 29 142 66 283 26 99 36 141 44
180 4 22 12 56 18 75 16 51 33 119 43 170 10 55 27 120 46 180 8 25 14 59 14
75 1 17 7 41 15 55 8 14 14 40 15 58 0 18 5 43 12 55 6 12 15 42 19 67 7 43
15 74 44 185 29 110 37 142 44 180 13 61 31 135 47 185 8 25 14 55 14 66 0 12
7 38 15 57 8 20 15 50 15 67 0 17 5 40 11 51 6 11 14 41 19 67 9 49 22 103 46
188 11 42 20 53 49 67 20 9 46 17 58 17 13 0 32 7 43 15 10 8 28 15 40 15 11
0 29 7 40 15 10 8 26 15 35 15 19 0 43 33 51 70 4 14 15 49 27 78 11 28 20 52
18 51 -1 -1 -21 -6 -44 -12z"/>
<path d="M7195 6780 c-9 -14 12 -112 40 -185 13 -33 42 -121 65 -195 23 -74
50 -160 60 -190 10 -30 40 -122 66 -205 26 -82 62 -199 81 -260 19 -60 46
-138 59 -172 13 -34 24 -70 24 -80 0 -10 18 -70 40 -133 88 -250 210 -620 210
-634 0 -7 7 -19 15 -26 8 -7 15 -24 15 -37 0 -14 6 -37 14 -51 8 -15 17 -39
21 -54 3 -16 10 -28 15 -28 16 0 12 66 -5 80 -9 7 -15 29 -15 52 0 25 -5 41
-15 44 -10 4 -15 20 -15 48 0 22 -7 50 -15 60 -8 11 -15 32 -15 47 0 15 -7 40
-15 55 -8 16 -15 40 -15 55 0 14 -4 29 -9 35 -6 5 -15 28 -20 52 -6 23 -16 61
-22 85 -5 23 -14 46 -20 52 -5 5 -9 21 -9 35 0 14 -7 35 -15 46 -8 10 -15 30
-15 44 0 14 -7 36 -15 50 -8 14 -14 36 -15 48 0 13 -6 38 -13 55 -18 42 -43
123 -52 164 -4 18 -11 35 -16 38 -5 4 -9 17 -9 30 0 13 -6 39 -14 57 -22 55
-38 101 -46 141 -4 21 -13 44 -19 50 -6 6 -11 23 -11 37 0 14 -7 35 -15 46 -8
10 -15 33 -15 50 0 16 -7 39 -15 50 -8 10 -15 30 -15 44 0 14 -7 36 -15 50 -8
14 -14 37 -15 51 0 14 -7 34 -15 45 -8 10 -15 30 -15 44 0 14 -7 38 -15 54 -8
15 -15 38 -15 50 0 12 -6 30 -14 41 -7 11 -16 34 -18 50 -6 31 -21 77 -43 130
-7 17 -16 43 -21 60 -10 30 -37 45 -49 25z"/>
<path d="M1127 6745 c-15 -14 -27 -36 -27 -48 0 -13 -7 -32 -15 -43 -8 -10
-15 -30 -15 -44 0 -14 -7 -34 -15 -44 -8 -11 -15 -30 -15 -42 0 -12 -7 -35
-15 -50 -8 -16 -15 -41 -15 -55 0 -15 -7 -32 -15 -39 -8 -7 -15 -27 -15 -44 0
-17 -7 -40 -15 -50 -8 -11 -15 -34 -15 -51 0 -17 -5 -36 -11 -42 -6 -6 -14
-26 -19 -44 -10 -39 -27 -90 -46 -137 -8 -18 -14 -43 -14 -55 0 -13 -7 -32
-15 -43 -8 -10 -15 -31 -15 -45 0 -14 -7 -34 -15 -45 -8 -10 -15 -32 -15 -49
0 -16 -7 -39 -15 -49 -8 -11 -15 -31 -15 -45 0 -14 -7 -35 -15 -45 -8 -11 -15
-32 -15 -47 0 -15 -4 -30 -9 -33 -5 -4 -12 -25 -16 -49 -4 -23 -14 -51 -21
-62 -8 -11 -14 -31 -14 -45 0 -14 -7 -34 -15 -44 -8 -11 -15 -34 -15 -50 0
-17 -7 -40 -15 -50 -8 -11 -15 -30 -15 -43 0 -12 -6 -37 -14 -55 -7 -18 -20
-55 -29 -83 -40 -136 -52 -171 -59 -180 -4 -6 -10 -30 -14 -53 -4 -23 -11 -45
-15 -48 -5 -3 -9 -17 -9 -32 -1 -15 -7 -38 -15 -52 -8 -14 -14 -37 -15 -51 0
-14 -7 -34 -15 -45 -8 -10 -15 -33 -15 -50 0 -16 -7 -39 -15 -50 -8 -10 -15
-33 -15 -50 0 -17 -7 -37 -15 -44 -16 -14 -21 -80 -5 -80 10 0 42 66 71 149
11 30 26 65 34 78 8 12 15 31 15 43 0 11 11 52 24 92 13 40 32 102 42 138 9
36 25 81 34 100 10 19 22 58 29 85 7 28 20 73 31 100 10 28 37 109 60 180 22
72 49 153 59 180 10 28 28 84 41 125 12 41 67 210 121 375 178 542 217 669
224 728 4 31 6 57 4 57 -3 0 -17 -11 -32 -25z"/>
<path d="M7046 6738 c-3 -7 -7 -62 -10 -123 -2 -60 -9 -130 -16 -154 -9 -36
-8 -51 3 -75 15 -31 30 -85 46 -159 5 -21 14 -44 20 -50 6 -6 11 -22 11 -35 0
-13 6 -38 13 -55 22 -52 38 -100 47 -137 9 -39 25 -87 46 -138 8 -18 14 -43
14 -55 0 -13 7 -32 15 -43 8 -10 15 -30 15 -44 0 -14 7 -36 15 -50 8 -14 14
-37 15 -51 0 -14 7 -34 15 -45 8 -10 15 -30 15 -42 0 -13 6 -38 13 -55 22 -52
38 -100 47 -137 10 -45 28 -97 46 -133 8 -16 14 -39 14 -51 0 -12 7 -31 15
-42 8 -10 15 -28 15 -39 0 -11 7 -33 15 -49 8 -15 15 -36 15 -46 0 -10 7 -23
15 -30 8 -7 15 -17 15 -22 0 -5 26 -44 58 -86 32 -42 75 -103 95 -134 20 -32
41 -58 46 -58 5 0 11 -9 14 -20 3 -11 10 -20 16 -20 6 0 11 9 11 20 0 11 -4
20 -10 20 -5 0 -10 10 -10 21 0 12 -8 40 -19 63 -38 84 -51 117 -51 131 0 7
-6 26 -14 42 -19 39 -36 91 -46 136 -4 21 -13 44 -19 50 -6 6 -11 22 -11 36
-1 15 -7 37 -15 51 -8 14 -14 37 -15 51 0 14 -7 34 -15 45 -8 10 -15 30 -15
44 0 14 -7 38 -15 54 -8 15 -15 36 -15 45 0 9 -7 29 -15 45 -8 15 -15 37 -15
47 0 10 -6 33 -14 51 -22 55 -38 101 -46 141 -4 21 -13 44 -19 50 -6 6 -11 22
-11 37 -1 14 -7 36 -15 50 -8 14 -14 37 -15 51 0 14 -7 34 -15 45 -8 10 -15
28 -15 39 0 11 -12 52 -26 90 -14 39 -29 86 -34 105 -9 39 -25 88 -46 138 -8
18 -14 43 -14 55 0 13 -7 32 -15 43 -8 10 -15 30 -15 44 0 14 -7 36 -15 50 -8
14 -15 39 -15 55 0 17 -7 41 -15 55 -8 14 -15 39 -15 55 0 17 -7 41 -15 55 -8
14 -14 35 -15 47 0 25 -18 41 -24 21z"/>
<path d="M4550 6672 c0 -77 4 -82 67 -82 20 0 59 -6 87 -14 60 -17 147 -34
231 -46 33 -4 73 -13 88 -19 16 -6 45 -11 66 -11 21 0 58 -7 81 -15 23 -8 62
-15 87 -15 24 0 53 -5 63 -10 19 -10 107 7 149 29 11 6 30 11 44 11 25 0 72
42 60 53 -3 4 -36 7 -72 7 -36 0 -82 5 -101 11 -19 6 -62 15 -95 19 -33 5 -85
14 -115 20 -30 6 -89 18 -130 26 -41 8 -97 20 -124 26 -26 6 -74 14 -105 18
-53 7 -87 14 -191 40 -101 25 -90 31 -90 -48z"/>
<path d="M1286 6712 c-4 -6 -11 -32 -17 -59 -23 -107 -28 -130 -43 -180 -8
-28 -19 -61 -25 -72 -6 -11 -11 -29 -11 -40 0 -12 -4 -29 -10 -39 -16 -28 -46
-116 -71 -212 -6 -25 -17 -58 -24 -75 -20 -48 -36 -97 -45 -135 -4 -19 -14
-51 -20 -70 -7 -19 -18 -51 -25 -70 -7 -19 -18 -51 -25 -70 -6 -19 -16 -51
-20 -70 -9 -39 -25 -87 -46 -138 -8 -18 -14 -43 -14 -55 0 -12 -7 -31 -15 -41
-8 -11 -15 -28 -15 -38 0 -9 -6 -32 -14 -50 -8 -18 -22 -60 -31 -93 -10 -33
-24 -75 -31 -93 -8 -18 -14 -43 -14 -55 0 -13 -5 -28 -11 -34 -6 -6 -15 -29
-19 -50 -10 -45 -27 -97 -46 -136 -8 -16 -14 -36 -14 -46 0 -9 -7 -26 -15 -37
-8 -10 -15 -26 -15 -34 0 -8 -9 -32 -20 -53 -11 -20 -20 -46 -20 -56 0 -11 -4
-23 -10 -26 -15 -10 -12 -35 5 -35 8 0 15 7 15 15 0 8 4 15 8 15 5 0 36 42 69
93 34 51 67 100 74 108 30 32 59 79 59 96 0 10 7 27 15 37 8 11 15 29 15 40 0
12 7 30 15 40 8 11 15 31 15 45 0 14 7 35 15 45 8 11 15 30 15 42 0 12 6 35
14 51 8 15 22 55 32 88 16 56 23 78 54 165 6 19 14 46 17 60 2 14 10 39 18 55
24 56 62 178 72 230 3 17 12 39 19 50 8 11 14 31 14 45 0 14 7 34 15 44 8 11
15 34 15 50 0 17 7 40 15 50 8 11 15 31 15 45 0 14 7 35 15 45 8 11 15 31 15
45 1 14 7 37 15 51 8 14 14 35 15 46 0 12 7 35 15 50 8 16 15 41 15 55 0 15 7
33 16 40 17 14 17 24 -5 232 -8 76 -22 110 -35 89z"/>
<path d="M3701 6695 c-18 -8 -51 -15 -72 -15 -22 0 -56 -7 -76 -15 -19 -8 -55
-15 -78 -15 -23 0 -59 -7 -78 -15 -20 -8 -54 -15 -75 -15 -22 0 -59 -7 -82
-15 -23 -8 -59 -15 -80 -15 -21 0 -57 -7 -80 -15 -23 -8 -60 -15 -80 -15 -21
0 -60 -4 -87 -10 -26 -5 -70 -12 -96 -15 -28 -4 -47 -11 -45 -17 5 -13 102
-47 134 -48 11 0 29 -7 40 -15 10 -8 27 -15 37 -15 10 0 29 -7 42 -16 23 -15
27 -15 50 0 14 9 45 16 73 16 27 0 71 7 98 15 27 8 65 15 85 15 20 0 56 7 79
15 23 8 60 15 81 15 21 0 50 5 66 11 15 6 55 15 88 20 33 4 87 14 120 22 l60
14 -1 69 -1 69 -44 2 c-24 2 -59 -4 -78 -12z"/>
<path d="M4506 6534 c-12 -36 -16 -86 -16 -205 0 -87 4 -160 9 -163 5 -4 19
10 31 29 21 34 22 45 18 200 -4 183 -15 218 -42 139z"/>
<path d="M3833 6483 c-10 -49 -10 -243 1 -307 7 -45 9 -48 24 -32 14 14 18 43
20 169 3 146 -5 207 -27 207 -6 0 -14 -17 -18 -37z"/>
<path d="M6070 6483 c1 -43 67 -143 110 -168 10 -5 87 -77 171 -159 149 -144
233 -211 251 -200 17 11 -58 96 -277 313 -194 192 -255 244 -255 214z"/>
<path d="M5780 6426 c-27 -14 -77 -33 -125 -46 -46 -13 -97 -31 -127 -46 -14
-8 -33 -14 -41 -14 -8 0 -28 -7 -43 -15 -16 -8 -36 -15 -45 -15 -8 0 -19 -4
-25 -9 -5 -5 -25 -14 -44 -19 -19 -6 -60 -20 -90 -32 -30 -12 -66 -24 -80 -27
-14 -3 -34 -12 -45 -19 -11 -8 -29 -14 -42 -14 -12 0 -24 -4 -28 -9 -3 -5 -19
-12 -36 -16 -17 -4 -42 -13 -57 -21 -15 -8 -32 -14 -38 -14 -7 0 -25 -7 -40
-15 -16 -8 -38 -15 -49 -15 -12 0 -25 -4 -30 -9 -10 -10 -75 -35 -130 -51
-102 -29 -145 -63 -145 -113 0 -14 5 -16 28 -11 15 4 36 13 47 20 11 8 27 14
36 14 9 0 30 7 45 15 16 8 36 15 44 15 9 0 21 5 27 11 6 6 26 14 44 19 19 5
59 18 89 30 117 45 136 52 160 57 14 3 34 12 45 19 11 8 28 14 38 14 10 0 31
6 45 14 36 18 91 37 124 43 15 3 33 11 39 19 6 8 23 14 38 14 14 0 35 7 45 15
11 8 28 15 37 15 10 0 30 6 46 14 54 27 104 46 120 46 9 0 24 6 32 14 23 19
76 27 90 13 6 -6 11 -27 11 -46 1 -20 7 -47 15 -61 8 -14 14 -37 15 -52 0 -15
6 -42 14 -60 15 -35 32 -97 46 -163 4 -22 12 -53 18 -70 27 -82 42 -134 42
-151 0 -11 7 -32 15 -48 8 -15 15 -40 15 -55 1 -14 7 -37 15 -51 8 -14 14 -38
15 -53 0 -15 6 -40 14 -55 7 -15 16 -43 19 -62 4 -19 16 -66 27 -105 12 -38
25 -90 31 -115 5 -24 14 -49 19 -54 6 -6 10 -23 10 -38 0 -16 6 -41 14 -56 7
-15 16 -44 19 -65 8 -53 30 -71 99 -77 64 -6 76 0 61 33 -17 38 -35 91 -42
127 -4 19 -13 51 -19 70 -6 19 -18 62 -27 95 -9 33 -21 74 -27 90 -5 17 -14
49 -19 73 -5 23 -13 51 -19 61 -5 11 -10 31 -10 45 0 14 -6 40 -14 58 -14 35
-31 93 -47 168 -5 24 -14 49 -19 54 -6 6 -10 19 -10 30 0 12 -6 41 -14 66 -8
25 -21 71 -30 103 -9 31 -23 83 -31 115 -9 31 -23 78 -31 103 -7 26 -14 55
-14 65 0 11 -7 32 -15 48 -8 15 -15 41 -15 56 0 42 -28 100 -48 100 -9 0 -28
-7 -42 -14z"/>
<path d="M2205 6419 c-60 -57 -399 -396 -426 -426 -33 -36 -59 -74 -59 -87 0
-3 19 5 41 17 23 12 103 81 177 152 75 72 165 157 200 190 60 56 112 127 112
153 0 14 -31 15 -45 1z"/>
<path d="M2501 6378 c-7 -29 -17 -69 -21 -88 -5 -19 -18 -66 -30 -105 -12 -38
-25 -88 -30 -110 -4 -22 -13 -56 -20 -75 -26 -77 -32 -96 -40 -130 -19 -87
-33 -137 -46 -162 -8 -14 -14 -38 -14 -53 0 -14 -5 -35 -10 -46 -6 -10 -14
-38 -19 -61 -5 -24 -14 -59 -21 -78 -7 -19 -16 -48 -22 -65 -6 -16 -14 -48
-18 -70 -5 -22 -18 -71 -30 -110 -12 -38 -25 -88 -29 -110 -4 -22 -13 -50 -19
-62 -7 -12 -12 -32 -12 -45 0 -13 -5 -29 -11 -35 -16 -16 -39 -112 -28 -119 5
-3 24 -1 42 5 17 6 43 13 57 15 21 5 28 16 43 68 10 35 23 77 29 93 6 17 13
46 15 65 3 19 9 40 14 46 5 6 13 31 18 55 5 24 14 58 19 74 6 17 17 55 25 85
33 119 49 176 59 205 6 17 14 48 18 70 4 22 12 54 18 70 6 17 18 57 27 90 9
33 21 74 27 90 5 17 13 48 17 70 4 22 13 50 19 62 7 12 12 33 12 46 0 14 7 38
15 53 8 16 15 39 15 52 0 13 7 45 16 73 17 52 33 60 68 34 11 -8 30 -15 42
-15 12 0 27 -7 34 -15 7 -8 21 -15 31 -15 10 0 33 -6 51 -14 18 -8 53 -22 78
-31 25 -9 59 -22 75 -29 48 -20 98 -38 125 -43 14 -3 34 -12 45 -19 11 -8 29
-14 40 -14 11 0 29 -7 39 -15 11 -8 29 -15 40 -15 12 0 30 -7 40 -15 11 -8 29
-15 40 -15 12 0 30 -7 40 -15 11 -8 29 -15 41 -15 12 0 30 -7 41 -15 10 -8 28
-15 40 -15 11 0 29 -7 40 -15 10 -8 27 -15 36 -15 17 0 67 -19 121 -46 16 -8
36 -14 45 -14 9 0 26 -7 36 -15 11 -8 30 -15 43 -15 22 0 23 3 17 38 -14 75
-26 85 -133 112 -18 5 -38 13 -44 19 -6 6 -19 11 -28 11 -10 0 -30 6 -46 14
-56 28 -104 46 -121 46 -10 0 -27 7 -38 15 -10 8 -28 15 -40 15 -11 0 -29 7
-40 15 -10 8 -27 15 -36 15 -17 0 -67 19 -121 46 -16 8 -36 14 -46 14 -9 0
-26 7 -37 15 -10 8 -30 15 -44 15 -14 0 -34 7 -44 15 -11 8 -29 15 -40 15 -12
0 -30 7 -40 15 -11 8 -29 15 -41 15 -12 0 -30 7 -41 15 -10 8 -27 15 -36 15
-9 0 -29 6 -45 14 -53 27 -104 46 -119 46 -8 0 -25 5 -37 12 -22 12 -87 38
-97 38 -3 0 -11 -24 -19 -52z"/>
<path d="M5217 6385 c-11 -7 -25 -11 -33 -8 -8 3 -25 -2 -39 -11 -13 -9 -35
-16 -48 -16 -13 0 -32 -7 -43 -15 -10 -8 -31 -15 -45 -15 -15 0 -32 -6 -38
-14 -6 -8 -24 -16 -39 -19 -15 -2 -43 -10 -62 -17 -19 -7 -53 -19 -75 -27 -22
-8 -53 -21 -68 -29 -16 -8 -35 -14 -43 -14 -32 0 -134 -65 -134 -86 0 -3 17
-3 38 1 55 10 372 118 467 160 22 10 67 29 100 44 71 31 116 61 109 73 -8 12
-26 9 -47 -7z"/>
<path d="M3135 6359 c-4 -6 2 -13 14 -16 12 -3 21 -10 21 -15 0 -8 29 -22 135
-68 137 -59 436 -160 475 -160 34 0 50 18 23 26 -10 3 -35 14 -55 24 -20 11
-44 20 -52 20 -8 0 -29 8 -48 17 -18 9 -45 22 -60 30 -14 7 -33 13 -41 13 -8
0 -28 7 -43 15 -16 8 -36 15 -44 15 -8 0 -24 7 -34 15 -11 8 -31 15 -45 15
-14 0 -35 7 -45 15 -11 8 -32 15 -47 15 -15 0 -31 5 -34 10 -3 6 -21 10 -39
10 -19 0 -39 7 -46 15 -15 18 -26 19 -35 4z"/>
<path d="M1386 6301 c-11 -17 -10 -210 1 -223 6 -7 11 -48 12 -91 1 -43 6
-102 12 -130 6 -29 14 -88 18 -131 l9 -79 -51 -66 c-29 -36 -57 -70 -64 -74
-7 -4 -13 -13 -13 -19 0 -10 -55 -84 -76 -103 -7 -5 -23 -28 -37 -50 -13 -22
-35 -51 -47 -65 -12 -14 -30 -36 -39 -50 -20 -32 -127 -181 -141 -197 -14 -17
-12 -33 4 -33 18 0 98 84 185 195 166 213 228 290 254 319 41 46 79 131 85
186 2 27 -3 87 -12 133 -18 90 -20 103 -30 207 -6 55 -53 268 -61 278 -2 2 -6
-1 -9 -7z"/>
<path d="M6945 6248 c-4 -13 -24 -132 -65 -394 -25 -161 -25 -178 0 -232 19
-41 98 -152 160 -222 17 -19 43 -53 58 -75 64 -95 237 -295 254 -295 20 0 3
47 -35 95 -10 14 -98 138 -117 165 -8 13 -20 28 -25 34 -32 35 -75 95 -75 104
0 6 -6 15 -13 19 -16 10 -77 88 -77 99 -1 5 -21 29 -46 54 -44 45 -44 46 -42
108 1 35 5 65 9 68 8 4 18 89 21 174 1 30 5 60 9 65 13 20 20 107 13 175 -6
64 -18 89 -29 58z"/>
<path d="M6092 6218 c6 -18 18 -53 28 -78 36 -93 43 -116 48 -154 4 -36 24
-60 213 -250 115 -116 209 -218 209 -226 0 -12 -77 -179 -135 -293 -8 -16 -15
-34 -15 -41 0 -7 -9 -21 -20 -31 -22 -20 -25 -50 -10 -91 l11 -27 24 23 c14
13 25 30 25 38 0 8 29 74 65 147 36 73 65 137 65 144 0 6 5 11 10 11 6 0 10 7
10 16 0 9 6 28 13 42 24 47 45 96 52 120 3 12 11 22 16 22 24 0 3 38 -50 89
-69 66 -435 444 -503 519 -55 60 -71 66 -56 20z"/>
<path d="M2215 6192 c-16 -20 -152 -161 -302 -311 -203 -205 -270 -278 -262
-287 6 -7 21 -43 34 -79 12 -36 25 -69 29 -72 3 -4 6 -19 6 -33 0 -15 7 -33
15 -40 8 -7 15 -20 15 -29 0 -9 7 -25 15 -35 8 -11 15 -27 15 -37 0 -9 7 -22
15 -29 8 -7 15 -23 15 -35 0 -13 7 -25 15 -29 8 -3 15 -16 15 -30 0 -13 7 -26
15 -30 8 -3 15 -17 15 -31 0 -14 4 -25 10 -25 5 0 17 -14 25 -31 13 -25 19
-28 31 -18 20 17 17 46 -6 59 -11 6 -20 21 -20 34 0 13 -7 29 -15 36 -8 7 -15
18 -15 25 0 12 -18 52 -42 95 -4 8 -11 22 -14 30 -3 8 -12 27 -20 42 -8 14
-14 33 -14 41 0 8 -7 17 -15 21 -8 3 -15 15 -15 26 0 11 -7 23 -15 26 -8 4
-15 9 -15 13 0 4 101 110 225 235 147 150 225 236 225 250 1 12 7 32 15 46 8
14 14 35 15 47 0 22 17 67 46 126 17 35 18 67 2 67 -7 -1 -26 -18 -43 -38z"/>
<path d="M4491 5862 c-7 -14 -11 -124 -11 -329 0 -273 2 -312 18 -343 30 -60
82 -78 312 -111 41 -5 89 -14 105 -19 17 -4 75 -16 130 -25 55 -9 145 -25 200
-36 55 -10 154 -28 220 -39 66 -11 156 -26 200 -35 262 -49 404 -63 405 -40 1
6 -20 15 -47 21 -26 6 -61 16 -76 22 -16 7 -46 12 -68 12 -22 0 -49 5 -60 11
-11 5 -52 13 -92 16 -40 3 -84 12 -99 19 -15 8 -47 14 -71 14 -24 0 -66 7 -93
15 -27 8 -72 15 -100 15 -27 0 -55 5 -61 11 -7 7 -42 16 -80 20 -89 11 -187
27 -243 41 -25 6 -72 14 -105 18 -33 4 -73 12 -88 18 -16 7 -46 12 -68 12 -35
0 -97 11 -157 28 l-23 7 -2 332 c-2 294 -4 334 -19 349 -15 15 -17 15 -27 -4z"/>
<path d="M3838 5799 c-10 -19 -13 -93 -14 -325 -1 -166 -4 -306 -7 -311 -4 -6
-38 -13 -76 -16 -39 -3 -79 -11 -90 -16 -11 -6 -40 -11 -66 -11 -25 0 -62 -7
-82 -15 -19 -8 -59 -15 -87 -15 -28 -1 -69 -7 -91 -15 -22 -8 -56 -15 -75 -15
-19 0 -60 -7 -90 -15 -30 -8 -71 -15 -91 -15 -20 0 -56 -7 -79 -15 -23 -8 -66
-15 -94 -15 -28 0 -64 -7 -80 -15 -15 -8 -49 -15 -75 -15 -25 0 -64 -5 -86
-11 -22 -6 -71 -15 -109 -19 -39 -5 -81 -14 -95 -19 -15 -5 -49 -11 -78 -14
-30 -2 -58 -11 -68 -20 -9 -10 -23 -17 -31 -17 -8 0 -14 -5 -14 -11 0 -15 125
-5 258 20 53 10 131 24 172 31 41 6 98 16 125 22 46 9 298 53 475 83 41 7 116
20 165 28 50 9 142 25 206 36 136 24 156 31 189 67 l25 27 0 313 c0 322 -5
368 -37 313z"/>
<path d="M2166 5788 c-4 -15 -14 -29 -21 -32 -8 -3 -17 -22 -21 -43 -4 -21
-13 -47 -20 -58 -8 -11 -14 -31 -14 -46 0 -15 -7 -40 -15 -55 -8 -16 -15 -42
-15 -59 0 -16 -7 -39 -15 -49 -8 -11 -15 -32 -15 -47 0 -15 -7 -40 -15 -55 -8
-16 -15 -43 -15 -60 0 -17 -7 -45 -16 -63 -10 -20 -14 -44 -10 -62 4 -20 0
-39 -10 -55 -25 -37 -10 -40 17 -3 39 55 59 100 79 181 11 43 25 90 31 105 35
91 91 345 86 393 -3 34 -3 34 -11 8z"/>
<path d="M6179 5793 c-7 -54 11 -135 85 -385 46 -156 80 -233 97 -222 12 7 11
71 -1 79 -5 3 -10 25 -10 49 0 23 -5 47 -12 54 -6 6 -15 33 -19 59 -4 27 -11
62 -17 78 -6 17 -15 46 -22 65 -7 19 -15 51 -20 70 -4 19 -15 49 -24 65 -9 17
-16 40 -16 52 0 20 -39 54 -41 36z"/>
<path d="M6814 5403 c-15 -32 -30 -59 -35 -61 -14 -5 -11 -60 4 -69 18 -11 77
-89 77 -101 0 -6 6 -15 13 -19 18 -11 77 -89 77 -101 0 -6 6 -15 13 -19 8 -4
96 -118 197 -253 101 -135 194 -256 206 -270 12 -14 36 -42 54 -62 17 -20 52
-46 78 -58 26 -12 54 -26 62 -31 8 -5 22 -12 30 -15 8 -3 22 -10 30 -15 31
-18 94 -49 102 -49 20 0 4 29 -42 80 -28 30 -116 143 -197 250 -81 107 -155
203 -165 213 -10 10 -30 37 -45 60 -14 23 -41 59 -59 80 -19 20 -34 41 -34 46
0 4 -10 19 -22 32 -42 45 -88 107 -88 117 0 6 -6 15 -13 19 -17 11 -77 88 -77
100 0 5 -9 16 -19 25 -11 9 -41 49 -66 87 -26 39 -49 71 -51 71 -2 0 -16 -26
-30 -57z"/>
<path d="M1490 5429 c0 -6 -13 -28 -30 -49 -16 -21 -30 -41 -30 -45 0 -8 -60
-87 -73 -96 -4 -3 -22 -27 -40 -52 -66 -95 -341 -452 -354 -460 -7 -4 -13 -13
-13 -19 0 -10 -57 -88 -74 -99 -5 -4 -20 -25 -35 -47 -33 -51 -126 -165 -180
-221 -22 -23 -41 -47 -41 -52 0 -16 36 -9 81 16 24 14 51 27 59 31 27 11 79
34 114 51 20 10 55 44 82 81 26 35 55 72 64 81 9 9 79 99 155 201 76 102 144
189 152 193 7 4 13 14 13 20 0 7 12 26 28 43 42 47 88 107 95 127 4 9 11 17
17 17 5 0 10 7 10 15 0 8 4 15 8 15 11 0 85 101 85 116 0 24 -66 144 -79 144
-8 0 -14 -5 -14 -11z"/>
<path d="M6673 5227 c-22 -23 -44 -53 -48 -67 -4 -14 -34 -75 -66 -136 -66
-124 -84 -204 -57 -246 22 -33 133 -87 473 -230 254 -107 355 -138 355 -108 0
6 -9 10 -20 10 -11 0 -23 6 -26 14 -3 8 -18 18 -34 21 -16 3 -34 13 -41 21 -6
8 -22 14 -34 14 -12 0 -28 7 -35 15 -7 8 -20 15 -30 15 -10 0 -23 7 -30 15 -7
8 -23 15 -35 15 -12 0 -28 7 -35 15 -7 8 -22 15 -34 15 -11 0 -30 7 -40 15
-11 8 -27 15 -37 15 -9 0 -22 7 -29 15 -7 8 -23 15 -35 15 -12 0 -28 7 -35 15
-7 8 -18 15 -25 15 -8 0 -28 8 -47 17 -18 9 -45 22 -60 30 -14 7 -33 13 -42
13 -9 0 -24 4 -34 9 -9 5 -29 14 -44 20 -33 13 -34 21 -8 51 11 13 20 31 20
42 0 10 4 18 10 18 5 0 12 11 16 25 3 13 12 29 20 36 8 6 14 22 14 34 0 12 7
28 15 35 8 7 15 20 15 30 0 10 7 23 15 30 8 7 15 21 15 31 0 10 4 20 9 24 5 3
13 20 17 37 3 18 11 40 18 50 7 12 7 21 0 28 -7 7 -23 -4 -51 -33z"/>
<path d="M1625 5249 c-4 -6 -2 -16 4 -22 6 -6 11 -23 11 -38 0 -15 7 -32 15
-39 8 -7 15 -20 15 -30 0 -10 7 -23 15 -30 8 -7 15 -23 15 -35 0 -12 7 -28 15
-35 8 -7 15 -20 15 -30 0 -10 7 -23 15 -30 8 -7 15 -21 15 -31 0 -9 7 -24 15
-33 8 -8 15 -21 15 -29 0 -8 9 -22 20 -32 11 -10 20 -24 20 -30 0 -16 -43 -45
-66 -45 -9 0 -28 -6 -42 -13 -15 -8 -42 -21 -60 -30 -19 -9 -42 -17 -52 -17
-9 0 -23 -7 -30 -15 -7 -8 -23 -15 -35 -15 -12 0 -28 -7 -35 -15 -7 -8 -20
-15 -29 -15 -10 0 -26 -7 -37 -15 -10 -8 -29 -15 -40 -15 -12 0 -27 -7 -34
-15 -7 -8 -19 -15 -27 -15 -8 0 -27 -6 -41 -13 -15 -8 -42 -21 -60 -30 -19 -9
-42 -17 -52 -17 -9 0 -23 -7 -30 -15 -7 -8 -19 -15 -27 -15 -8 0 -26 -9 -40
-20 -14 -11 -32 -20 -39 -20 -8 0 -14 -7 -14 -15 0 -9 9 -15 23 -15 22 0 226
74 282 103 17 8 98 43 180 77 283 117 327 143 337 203 6 31 -31 152 -63 206
-12 20 -27 55 -34 77 -24 79 -122 193 -140 163z"/>
<path d="M4547 5003 c-3 -5 -7 -33 -8 -63 l-4 -54 40 -7 c22 -4 53 -12 68 -18
16 -6 45 -11 66 -11 21 0 60 -7 87 -15 27 -8 66 -15 87 -15 21 0 47 -5 57 -10
11 -6 57 -14 102 -19 46 -4 94 -13 105 -20 12 -6 39 -11 60 -11 21 0 65 -7 96
-15 32 -8 73 -15 91 -15 19 0 53 -7 76 -15 23 -8 59 -15 80 -15 20 0 59 -7 86
-15 27 -8 64 -15 82 -15 18 0 58 -6 90 -14 83 -21 178 -37 252 -43 36 -2 68
-8 73 -12 4 -4 -4 -23 -17 -42 -14 -19 -56 -81 -95 -139 -39 -58 -75 -110 -81
-117 -5 -7 -10 -15 -10 -18 0 -6 -40 -66 -51 -75 -3 -3 -16 -23 -29 -45 -13
-22 -27 -42 -30 -45 -3 -3 -17 -23 -30 -45 -13 -22 -29 -45 -35 -51 -5 -6 -19
-27 -30 -47 -11 -20 -23 -37 -27 -37 -5 0 -8 -5 -8 -10 0 -12 -41 -73 -52 -78
-5 -2 -8 -8 -8 -13 0 -11 -42 -72 -52 -77 -5 -2 -8 -8 -8 -13 0 -11 -42 -72
-52 -77 -5 -2 -8 -8 -8 -13 0 -9 -34 -61 -55 -84 -5 -7 -19 -28 -30 -48 -11
-20 -23 -37 -27 -37 -5 0 -8 -6 -8 -14 0 -8 -6 -21 -13 -28 -7 -7 -24 -31 -37
-53 -13 -22 -27 -42 -30 -45 -3 -3 -17 -23 -30 -45 -13 -22 -27 -42 -30 -45
-3 -3 -17 -23 -30 -45 -13 -22 -27 -42 -31 -45 -3 -3 -20 -31 -37 -62 -29 -55
-29 -58 -11 -63 20 -7 49 10 49 27 0 6 14 27 30 48 17 21 30 41 30 45 0 4 14
24 30 45 17 21 30 41 30 45 0 4 14 24 30 45 17 21 30 41 30 45 0 4 14 24 30
45 17 21 30 41 30 45 0 4 14 24 30 45 17 21 30 41 30 45 0 4 14 24 30 45 17
21 30 41 30 45 0 4 14 24 30 45 17 21 30 41 30 45 0 4 14 24 30 45 17 21 30
41 30 45 0 4 14 24 30 45 17 21 30 41 30 45 0 4 14 24 30 45 17 21 30 41 30
45 0 4 14 24 30 45 17 21 30 41 30 45 0 4 14 24 30 45 17 21 30 41 30 45 0 4
14 24 30 45 17 21 30 40 30 43 0 3 20 35 45 71 25 37 45 71 45 76 0 6 4 10 9
10 5 0 13 10 17 23 4 12 10 24 13 27 13 10 48 67 90 147 12 23 29 47 37 54 8
7 20 21 25 31 13 24 -17 36 -120 48 -76 9 -152 22 -246 41 -27 6 -75 14 -105
19 -118 18 -197 32 -235 41 -22 5 -73 14 -113 20 -40 5 -84 14 -98 19 -14 6
-47 10 -73 10 -26 0 -51 4 -57 9 -5 6 -49 15 -98 21 -49 6 -94 14 -100 18 -6
3 -36 10 -66 13 -83 11 -189 29 -250 44 -75 19 -138 27 -143 18z"/>
<path d="M3760 4985 c-14 -8 -44 -14 -68 -15 -23 0 -59 -7 -79 -15 -19 -8 -54
-15 -78 -15 -23 0 -64 -7 -91 -15 -27 -8 -67 -15 -89 -15 -22 0 -58 -7 -80
-15 -22 -8 -60 -14 -84 -15 -24 0 -67 -7 -95 -14 -53 -16 -142 -31 -263 -46
-40 -4 -78 -12 -84 -16 -7 -4 -42 -11 -78 -15 -36 -4 -90 -13 -118 -18 -29 -6
-77 -16 -105 -22 -29 -5 -82 -14 -118 -19 -36 -5 -83 -13 -105 -19 -22 -6 -58
-11 -81 -11 -22 0 -43 -3 -47 -6 -3 -3 14 -33 39 -66 24 -33 44 -66 44 -74 0
-17 -5 -18 58 6 29 11 74 20 100 20 26 1 65 7 87 15 22 8 59 15 82 15 23 0 54
5 70 11 15 6 60 15 98 19 72 9 137 20 260 45 83 16 187 34 270 45 33 5 76 13
95 19 19 6 53 11 76 11 23 0 58 7 77 15 20 8 58 15 84 15 26 1 66 7 88 15 22
8 60 15 85 15 25 0 60 8 79 18 34 17 35 18 35 87 1 63 -1 70 -19 72 -11 2 -31
-4 -45 -12z"/>
<path d="M4492 4824 c-5 -11 -12 -215 -16 -474 -7 -445 -7 -457 13 -510 24
-64 79 -148 133 -205 21 -22 60 -70 88 -105 28 -36 69 -89 93 -119 23 -29 51
-66 62 -81 93 -127 151 -193 209 -237 38 -29 44 -22 20 24 -21 41 -24 46 -55
83 -12 14 -33 43 -46 65 -14 22 -30 45 -37 50 -21 19 -76 93 -76 103 0 6 -6
15 -13 19 -8 4 -76 91 -152 193 -75 102 -143 190 -150 195 -37 30 -42 66 -36
245 3 96 6 302 6 457 0 249 -2 284 -17 299 -15 15 -17 15 -26 -2z"/>
<path d="M3838 4774 c-10 -22 -13 -134 -15 -464 -1 -469 -2 -476 -55 -530 -13
-14 -46 -54 -73 -90 -27 -36 -55 -69 -62 -73 -7 -4 -13 -13 -13 -19 0 -10 -55
-84 -76 -103 -7 -5 -23 -28 -37 -50 -14 -22 -41 -58 -61 -80 -20 -22 -36 -46
-36 -52 0 -7 -4 -13 -8 -13 -7 0 -140 -176 -175 -232 -27 -43 -50 -36 -75 22
-12 28 -26 50 -32 50 -5 0 -10 5 -10 12 0 6 -26 50 -57 97 -72 108 -81 122
-89 144 -3 9 -10 17 -15 17 -8 0 -33 40 -45 73 -3 9 -10 17 -15 17 -5 0 -14
10 -19 23 -15 33 -33 61 -47 70 -7 4 -13 17 -13 28 0 11 -7 22 -15 25 -8 4
-15 12 -15 19 0 7 -7 15 -15 19 -8 3 -15 15 -15 26 0 11 -7 23 -15 26 -8 4
-15 12 -15 19 0 7 -7 15 -15 19 -8 3 -15 15 -15 26 0 11 -7 23 -15 26 -8 4
-15 12 -15 19 0 7 -7 15 -15 19 -8 3 -15 14 -15 25 0 11 -6 24 -12 28 -13 8
-33 36 -45 63 -3 8 -19 31 -35 51 -15 20 -28 40 -28 44 0 4 -13 24 -30 45 -16
21 -30 41 -30 45 0 4 -13 24 -30 45 -17 21 -30 40 -30 44 0 8 -104 161 -112
164 -5 2 -8 8 -8 14 0 13 -47 58 -61 58 -5 0 -9 -7 -9 -16 0 -27 52 -136 82
-174 15 -19 28 -39 28 -44 0 -15 40 -95 51 -102 5 -3 9 -22 9 -43 0 -35 3 -39
30 -44 20 -5 35 -18 50 -44 11 -21 32 -53 45 -72 31 -42 33 -71 5 -71 -13 0
-25 10 -32 28 -13 29 -22 40 -98 120 -27 29 -50 59 -50 67 0 8 -4 15 -8 15 -4
0 -23 16 -42 35 -19 19 -38 35 -42 35 -16 0 -7 -34 17 -66 14 -18 25 -39 25
-48 0 -8 6 -19 13 -23 12 -8 29 -32 47 -68 6 -11 19 -33 30 -50 11 -16 23 -38
26 -47 4 -10 10 -18 15 -18 8 0 33 -40 45 -72 3 -10 10 -18 15 -18 5 0 14 -10
19 -22 13 -30 33 -61 43 -69 11 -8 34 -47 43 -71 3 -10 10 -18 15 -18 5 0 14
-10 19 -22 15 -34 33 -62 48 -71 6 -4 12 -14 12 -20 0 -7 12 -26 28 -43 32
-37 49 -61 62 -91 5 -13 14 -23 20 -23 5 0 12 -11 16 -25 7 -30 28 -28 32 3 2
13 -3 25 -12 28 -9 3 -16 15 -16 25 0 10 -4 19 -10 19 -5 0 -10 8 -10 19 0 10
-7 24 -15 31 -8 7 -15 21 -15 31 0 10 -4 21 -10 24 -17 10 -11 49 9 62 23 14
32 6 49 -44 6 -17 34 -55 62 -84 28 -29 72 -87 96 -128 100 -168 192 -271 242
-271 52 0 115 62 257 250 86 115 267 343 296 375 55 59 70 80 103 148 l37 74
-3 461 c-2 345 -6 464 -15 473 -10 10 -15 6 -25 -17z m-1276 -939 c24 -22 48
-89 36 -101 -15 -14 -86 85 -88 124 -1 11 30 -3 52 -23z m88 -129 c0 -8 11
-28 25 -44 14 -17 25 -38 25 -47 0 -10 8 -24 18 -31 13 -10 14 -15 5 -25 -9
-9 -18 -8 -38 5 -14 9 -29 25 -32 34 -4 9 -13 23 -20 30 -7 7 -13 20 -13 28 0
8 -7 14 -15 14 -9 0 -15 9 -15 25 0 21 5 25 30 25 19 0 30 -5 30 -14z"/>
<path d="M6490 4589 c0 -22 -5 -49 -10 -59 -16 -30 6 -55 69 -80 31 -12 63
-26 71 -31 8 -5 22 -12 30 -15 8 -3 30 -12 48 -20 17 -8 47 -20 65 -28 71 -30
113 -48 140 -62 16 -8 34 -14 42 -14 7 0 18 -7 25 -15 7 -8 21 -15 30 -15 10
0 31 -6 47 -14 15 -8 46 -22 68 -32 22 -9 52 -23 67 -31 14 -7 33 -13 41 -13
8 0 20 -7 27 -15 7 -8 21 -15 30 -15 10 0 33 -8 52 -17 104 -52 125 -56 239
-43 130 15 179 45 99 61 -18 4 -42 11 -54 17 -11 5 -41 17 -66 27 -44 17 -72
29 -145 60 -68 29 -110 48 -137 62 -14 7 -33 13 -41 13 -8 0 -20 7 -27 15 -7
8 -21 15 -30 15 -16 0 -52 15 -100 42 -8 4 -22 11 -30 14 -86 34 -168 68 -180
75 -8 5 -22 12 -30 15 -24 9 -69 28 -188 80 -20 9 -44 20 -52 25 -25 15 -82
39 -91 39 -5 0 -9 -18 -9 -41z"/>
<path d="M1800 4595 c-7 -8 -20 -15 -30 -15 -10 0 -23 -7 -30 -15 -7 -8 -23
-15 -35 -15 -12 0 -28 -7 -35 -15 -7 -8 -20 -15 -29 -15 -10 0 -26 -7 -37 -15
-10 -8 -29 -15 -40 -15 -12 0 -27 -7 -34 -15 -7 -8 -23 -15 -35 -15 -12 0 -28
-7 -35 -15 -7 -8 -19 -15 -27 -15 -8 0 -27 -6 -41 -13 -15 -8 -45 -22 -67 -31
-22 -10 -53 -24 -68 -32 -16 -8 -37 -14 -47 -14 -9 0 -23 -7 -30 -15 -7 -8
-20 -15 -29 -15 -10 0 -26 -7 -37 -15 -10 -8 -29 -15 -40 -15 -12 0 -27 -7
-34 -15 -7 -8 -20 -15 -29 -15 -10 0 -26 -7 -37 -15 -10 -8 -29 -15 -40 -15
-12 0 -27 -7 -34 -15 -7 -8 -23 -15 -35 -15 -12 0 -28 -7 -35 -15 -7 -8 -22
-15 -34 -15 -11 -1 -32 -7 -46 -15 -14 -8 -34 -15 -45 -15 -11 0 -33 -12 -50
-25 -35 -29 -29 -32 70 -38 39 -3 96 -11 128 -18 51 -12 61 -11 92 4 20 9 51
23 70 31 20 9 50 22 68 29 17 8 52 22 77 32 25 9 57 23 72 31 14 8 33 14 41
14 8 0 20 7 27 15 7 8 21 15 30 15 10 0 33 8 52 17 18 9 45 22 60 30 14 7 33
13 41 13 8 0 20 7 27 15 7 8 21 15 30 15 10 0 31 6 47 14 15 8 46 22 68 32 22
9 47 21 55 26 8 4 22 11 30 14 142 56 141 55 134 108 -14 105 -14 106 -38 106
-13 0 -29 -7 -36 -15z"/>
<path d="M7930 4493 c0 -10 4 -24 9 -31 6 -10 10 -8 14 9 3 12 4 26 1 31 -9
14 -24 9 -24 -9z"/>
<path d="M6424 4405 c-7 -19 -14 -51 -14 -72 0 -21 -5 -67 -10 -102 -28 -198
-21 -381 15 -381 14 0 21 41 29 185 3 44 10 128 17 186 12 108 6 219 -12 219
-6 0 -17 -16 -25 -35z"/>
<path d="M1893 4408 c-10 -16 -12 -216 -2 -244 14 -41 31 -326 19 -338 -7 -7
-24 -3 -55 12 -25 12 -61 22 -79 22 -18 0 -50 7 -69 15 -20 8 -55 15 -77 15
-22 0 -57 7 -77 15 -19 8 -53 15 -75 15 -21 0 -55 7 -75 15 -19 8 -53 15 -74
15 -21 0 -50 5 -66 11 -15 6 -57 15 -93 20 -36 5 -82 11 -102 15 -21 3 -46 3
-55 -1 -14 -6 -9 -11 27 -27 46 -21 69 -27 295 -72 72 -15 153 -33 180 -40 28
-8 68 -17 90 -21 22 -3 78 -18 123 -32 108 -33 161 -28 206 16 29 29 31 37 34
114 7 160 -35 487 -62 487 -3 0 -8 -6 -13 -12z"/>
<path d="M6253 4378 c-10 -18 -22 -40 -26 -48 -4 -8 -16 -28 -27 -45 -11 -16
-22 -34 -24 -40 -5 -14 -25 -205 -36 -360 -11 -148 -27 -213 -55 -229 -11 -6
-36 -23 -56 -38 -20 -16 -42 -28 -47 -28 -6 0 -15 -6 -19 -14 -4 -7 -30 -29
-58 -47 -67 -44 -166 -118 -188 -141 -10 -10 -21 -18 -25 -18 -14 0 -126 -109
-119 -116 3 -4 23 1 42 11 20 9 53 24 74 33 34 15 187 122 282 197 21 17 59
46 84 65 28 21 55 53 68 80 12 25 43 66 69 91 42 40 48 52 50 90 1 24 4 60 6
79 2 19 7 100 12 180 4 80 16 181 25 224 14 68 14 81 2 93 -12 13 -17 10 -34
-19z"/>
<path d="M2057 4386 c-3 -8 -1 -40 4 -72 21 -126 28 -192 28 -271 1 -143 21
-285 45 -315 12 -15 26 -27 31 -28 6 0 19 -22 31 -48 16 -37 36 -59 83 -93 34
-24 107 -78 164 -119 56 -42 118 -85 137 -96 73 -44 153 -85 157 -80 8 8 -40
57 -102 104 -33 25 -62 49 -65 52 -3 4 -30 24 -60 45 -30 21 -59 42 -65 47
-36 30 -145 108 -151 108 -16 0 -93 72 -93 88 -1 9 -5 49 -10 87 -6 39 -10
109 -10 157 -1 48 -6 99 -12 115 -6 15 -12 69 -13 119 -2 83 -4 94 -34 138
-18 26 -32 54 -32 62 0 18 -26 18 -33 0z"/>
<path d="M6028 4117 c-57 -58 -127 -152 -173 -232 -15 -27 -49 -77 -75 -110
-26 -33 -50 -67 -54 -75 -3 -8 -29 -49 -56 -90 -96 -148 -178 -310 -156 -310
18 0 139 155 201 258 6 9 22 33 38 53 15 20 27 40 27 44 0 4 14 24 30 45 17
21 30 41 30 45 0 4 14 24 30 45 17 21 30 41 30 45 0 4 14 24 30 45 17 21 30
41 30 45 0 4 14 24 30 45 17 21 30 41 30 44 0 4 11 24 25 46 14 22 25 45 25
52 0 6 7 19 16 29 9 10 11 19 5 23 -5 3 -33 -18 -63 -47z"/>
<path d="M7210 3998 c-19 -5 -63 -13 -97 -17 -34 -3 -68 -12 -75 -19 -6 -6
-37 -12 -67 -12 -31 -1 -67 -7 -81 -15 -14 -8 -46 -14 -71 -15 -26 0 -63 -7
-82 -15 -20 -8 -56 -15 -79 -15 -24 -1 -54 -7 -68 -15 -14 -8 -40 -14 -59 -15
-34 0 -101 -34 -101 -51 0 -28 114 -22 214 10 74 24 183 49 421 96 174 35 264
57 286 71 35 22 -74 31 -141 12z"/>
<path d="M7900 3964 c-25 -7 -61 -13 -81 -13 -20 -1 -56 -8 -79 -16 -23 -8
-57 -15 -75 -15 -18 0 -52 -7 -75 -15 -23 -8 -59 -15 -80 -15 -21 0 -54 -7
-73 -15 -20 -8 -55 -15 -77 -15 -22 0 -57 -7 -77 -15 -19 -8 -52 -15 -73 -15
-21 0 -57 -7 -80 -15 -23 -8 -54 -15 -69 -15 -24 0 -66 -8 -228 -46 -34 -8
-90 -14 -125 -14 -36 0 -68 -3 -71 -6 -7 -7 33 -54 46 -54 5 0 25 -8 44 -17
30 -14 42 -15 77 -4 22 6 70 16 106 21 36 5 78 14 94 19 15 6 45 11 67 11 22
0 56 7 76 15 19 8 53 15 75 15 21 0 55 7 75 15 19 8 53 15 75 15 21 0 55 7 75
15 19 8 52 15 73 15 21 0 57 7 80 15 23 8 57 15 75 15 18 0 52 7 75 15 23 8
61 15 83 15 42 0 36 4 180 -128 26 -24 36 -40 31 -51 -3 -9 -10 -32 -15 -51
-15 -65 -32 -125 -45 -163 -8 -20 -14 -50 -14 -65 -1 -15 -7 -38 -15 -52 -8
-14 -14 -38 -15 -53 0 -15 -6 -42 -14 -60 -7 -18 -16 -53 -20 -79 -7 -44 -6
-46 23 -56 27 -10 33 -8 51 15 11 14 20 41 20 59 0 19 6 51 14 71 15 44 34
111 46 168 4 22 12 54 18 70 14 39 31 109 42 165 4 25 13 58 19 73 13 33 15
107 3 107 -5 0 -44 34 -86 75 -42 41 -85 74 -94 74 -9 -1 -37 -7 -62 -15z"/>
<path d="M314 3914 c-111 -93 -117 -100 -116 -140 1 -19 4 -40 8 -45 3 -6 12
-42 19 -82 21 -109 35 -170 45 -192 5 -11 12 -40 16 -65 3 -25 9 -49 13 -55 6
-10 23 -78 44 -178 13 -60 37 -90 64 -80 11 4 13 17 7 62 -3 31 -11 65 -17 76
-6 11 -14 38 -18 60 -10 53 -47 195 -72 275 -6 19 -14 53 -18 75 l-7 40 85 83
c94 89 111 96 180 67 19 -8 53 -15 75 -15 21 0 55 -7 75 -15 19 -8 52 -15 72
-15 20 -1 54 -7 76 -15 22 -8 57 -15 78 -15 21 0 54 -7 74 -15 19 -8 53 -15
75 -15 21 0 55 -7 75 -15 19 -8 53 -15 75 -15 21 0 55 -7 75 -15 19 -8 55 -15
80 -15 24 0 60 -7 80 -15 46 -19 83 -19 125 2 58 29 68 33 77 33 24 0 64 21
55 30 -11 11 -148 40 -191 40 -17 0 -44 5 -60 11 -15 6 -53 15 -83 19 -30 4
-75 12 -100 18 -64 15 -146 32 -210 41 -30 5 -68 14 -83 20 -16 6 -46 11 -68
11 -22 0 -56 7 -76 15 -19 8 -52 15 -72 15 -20 1 -54 7 -76 15 -22 8 -54 15
-72 15 -17 0 -44 5 -60 11 -15 6 -53 15 -83 19 -30 4 -65 11 -76 15 -17 5 -37
-6 -90 -51z"/>
<path d="M30 3716 c0 -36 5 -68 10 -71 6 -3 10 -25 10 -48 0 -23 7 -55 15 -71
8 -15 15 -42 15 -60 1 -17 7 -42 15 -56 8 -14 14 -41 15 -61 0 -19 7 -44 15
-55 8 -10 15 -35 15 -54 0 -19 7 -46 15 -60 8 -14 14 -41 15 -61 0 -19 7 -44
15 -55 8 -11 14 -42 15 -73 0 -46 5 -60 27 -83 15 -15 32 -28 39 -28 13 0 24
-31 24 -72 0 -30 64 -88 99 -88 11 0 37 -7 58 -16 64 -28 96 -41 143 -59 25
-10 59 -23 75 -30 17 -7 50 -21 75 -30 55 -21 105 -43 143 -61 16 -8 40 -14
54 -14 25 0 26 2 19 48 -6 48 -25 72 -57 72 -10 0 -31 7 -48 15 -17 8 -45 22
-62 30 -17 8 -37 15 -44 15 -7 0 -27 7 -44 15 -17 8 -45 22 -62 30 -17 8 -37
15 -44 15 -7 0 -27 7 -44 15 -17 8 -45 22 -62 30 -17 8 -39 15 -49 15 -9 0
-23 7 -30 15 -7 8 -20 15 -30 15 -9 0 -29 9 -43 20 -14 11 -30 20 -36 20 -5 0
-13 17 -17 38 -12 69 -99 407 -109 423 -3 4 -9 27 -15 51 -34 163 -105 388
-122 388 -4 0 -8 -29 -8 -64z"/>
<path d="M6852 3568 c3 -7 31 -26 64 -44 144 -75 785 -375 856 -400 47 -16 98
-18 98 -4 0 6 -8 10 -18 10 -9 0 -23 9 -30 20 -7 11 -21 20 -31 20 -10 0 -24
7 -31 15 -7 8 -20 15 -30 15 -10 0 -23 7 -30 15 -7 8 -20 15 -30 15 -10 0 -23
7 -30 15 -7 8 -23 15 -35 15 -12 0 -28 7 -35 15 -7 8 -18 15 -24 15 -6 0 -38
13 -71 29 -33 16 -81 39 -107 51 -27 12 -50 26 -54 31 -3 5 -16 9 -28 9 -13 0
-29 7 -36 15 -7 8 -20 15 -30 15 -10 0 -23 7 -30 15 -7 8 -23 15 -35 15 -12 0
-28 7 -35 15 -7 8 -20 15 -29 15 -9 0 -25 7 -35 15 -11 8 -27 15 -37 15 -9 0
-22 7 -29 15 -7 8 -23 15 -36 15 -12 0 -26 5 -29 10 -9 15 -78 13 -73 -2z"/>
<path d="M4524 3556 c-4 -10 -2 -22 4 -28 6 -6 8 -47 5 -108 -4 -67 -2 -99 6
-104 6 -4 11 -14 11 -23 0 -8 9 -25 21 -37 11 -11 93 -118 182 -236 89 -117
167 -215 172 -217 6 -2 18 10 29 25 10 15 31 36 47 45 30 17 39 50 16 64 -7 4
-28 28 -47 53 -19 25 -42 53 -52 63 -10 10 -30 37 -45 60 -14 23 -36 52 -48
65 -12 12 -35 41 -51 65 -16 23 -31 44 -35 47 -13 12 -126 168 -142 198 -10
18 -29 44 -43 59 -21 22 -24 23 -30 9z"/>
<path d="M3801 3537 c-6 -15 -15 -27 -21 -27 -5 0 -10 -5 -10 -11 0 -6 -13
-28 -30 -49 -16 -21 -30 -42 -30 -46 0 -5 -18 -29 -40 -53 -22 -25 -40 -48
-40 -53 0 -4 -9 -17 -19 -27 -10 -10 -67 -83 -125 -160 -59 -78 -123 -158
-142 -177 -19 -20 -34 -39 -34 -42 0 -13 114 -112 119 -104 56 77 287 378 293
381 5 2 13 13 19 25 5 11 25 44 45 71 36 50 36 50 32 135 -3 46 0 97 6 112 7
20 7 31 -1 39 -10 10 -15 6 -22 -14z"/>
<path d="M1380 3541 c-63 -32 -84 -41 -100 -41 -9 0 -23 -7 -30 -15 -7 -8 -23
-15 -35 -15 -12 0 -28 -7 -35 -15 -7 -8 -20 -15 -30 -15 -10 0 -23 -7 -30 -15
-7 -8 -21 -15 -31 -15 -9 0 -24 -7 -33 -15 -8 -8 -22 -15 -30 -15 -9 0 -42
-13 -73 -30 -31 -16 -61 -30 -68 -30 -7 0 -18 -7 -25 -15 -7 -8 -23 -15 -35
-15 -12 0 -28 -7 -35 -15 -7 -8 -20 -15 -30 -15 -10 0 -23 -7 -30 -15 -7 -8
-20 -15 -30 -15 -10 0 -23 -7 -30 -15 -7 -8 -23 -15 -35 -15 -12 0 -28 -7 -35
-15 -7 -8 -20 -15 -30 -15 -10 0 -23 -7 -30 -15 -7 -8 -18 -15 -24 -15 -7 0
-28 -13 -46 -30 l-34 -30 27 0 c37 0 122 34 327 130 96 45 191 88 210 95 56
20 392 186 423 209 15 11 27 23 27 28 0 10 -50 9 -70 -1z"/>
<path d="M6148 3495 c-29 -25 -63 -48 -75 -51 -13 -4 -23 -10 -23 -14 0 -4 -8
-10 -17 -14 -22 -7 -46 -22 -94 -58 -20 -16 -42 -28 -48 -28 -6 0 -11 -5 -11
-10 0 -6 -11 -15 -25 -20 -14 -5 -25 -14 -25 -20 0 -5 -6 -10 -14 -10 -8 0
-16 -7 -20 -15 -3 -8 -10 -15 -16 -15 -7 0 -38 -20 -70 -45 -32 -25 -63 -45
-70 -45 -6 0 -13 -7 -16 -15 -4 -8 -12 -15 -19 -15 -7 0 -15 -7 -19 -15 -3 -8
-10 -15 -16 -15 -6 0 -47 -27 -90 -60 -43 -33 -83 -60 -88 -60 -6 0 -12 -7
-16 -15 -3 -8 -11 -15 -19 -15 -7 0 -32 -18 -56 -40 -42 -40 -43 -42 -37 -88
8 -59 27 -116 48 -139 22 -25 58 -84 150 -247 44 -77 95 -166 113 -196 18 -30
53 -93 78 -140 76 -146 210 -350 230 -350 4 0 7 8 7 17 0 25 -31 103 -41 103
-5 0 -9 9 -9 19 0 11 -4 22 -9 26 -6 3 -22 29 -36 58 -36 71 -51 97 -64 110
-6 6 -11 19 -11 28 0 9 -7 19 -15 23 -8 3 -15 14 -15 25 0 11 -5 23 -11 26 -5
4 -15 17 -20 28 -5 12 -18 36 -29 52 -11 17 -24 39 -30 50 -5 11 -14 27 -19
35 -5 8 -12 22 -15 30 -4 8 -15 29 -26 45 -10 17 -31 53 -45 80 -30 57 -48 87
-75 130 -11 17 -25 42 -31 58 -6 15 -15 27 -19 27 -4 0 -11 11 -14 25 -4 14
-11 25 -16 25 -6 0 -10 6 -10 14 0 7 -10 21 -22 29 l-23 16 27 23 c27 24 51
42 88 68 33 23 153 109 172 123 9 6 26 19 38 27 12 8 65 47 118 85 54 39 115
82 137 97 22 15 53 39 69 53 16 14 32 25 35 25 3 0 28 20 56 45 61 55 85 59
84 13 0 -18 -5 -60 -11 -93 -5 -33 -14 -127 -19 -210 -5 -82 -11 -168 -14
-190 -4 -22 -10 -110 -15 -195 -5 -85 -11 -173 -14 -195 -11 -98 -17 -167 -21
-265 -3 -58 -7 -121 -10 -140 -11 -77 -23 -417 -16 -450 10 -41 64 -143 80
-148 8 -3 11 41 12 140 2 168 3 189 17 288 6 41 13 131 16 200 3 69 10 157 15
195 6 39 10 105 11 148 0 43 7 135 15 205 8 70 17 183 20 252 2 69 9 154 14
190 5 36 10 117 12 180 1 68 8 136 17 166 15 51 12 84 -7 84 -5 0 -33 -20 -63
-45z"/>
<path d="M6409 3533 c-1 -5 -2 -44 -4 -88 -1 -44 -5 -87 -9 -95 -4 -10 6 -30
28 -55 19 -22 66 -78 106 -125 40 -47 76 -87 79 -90 4 -3 49 -54 101 -115 52
-60 105 -121 118 -135 14 -14 52 -58 86 -99 33 -41 75 -88 91 -106 73 -75 97
-114 90 -143 -4 -15 -7 -49 -6 -77 3 -104 -16 -298 -31 -309 -7 -6 -36 -40
-63 -76 -27 -36 -57 -73 -67 -83 -10 -10 -26 -30 -36 -45 -9 -15 -27 -38 -39
-52 -12 -14 -31 -36 -43 -50 -12 -14 -30 -36 -39 -50 -17 -27 -46 -63 -71 -89
-8 -9 -24 -30 -35 -47 -44 -70 -108 -134 -153 -154 -26 -12 -54 -26 -62 -31
-8 -5 -22 -12 -30 -15 -8 -3 -22 -10 -30 -15 -8 -5 -27 -14 -42 -20 -16 -6
-28 -15 -28 -19 0 -5 -10 -12 -22 -16 -22 -7 -47 -31 -48 -46 0 -9 140 30 165
46 11 8 45 24 75 36 67 28 120 66 120 86 0 7 5 14 10 14 6 0 10 6 10 13 0 7
13 24 30 37 16 14 29 28 30 32 0 4 14 22 30 40 17 18 30 38 30 46 0 7 7 15 15
18 8 4 15 12 15 20 0 8 7 14 15 14 8 0 15 4 15 9 0 6 14 25 30 43 17 18 30 38
30 46 0 7 7 15 15 18 8 4 15 10 15 14 0 4 20 29 45 56 25 26 45 53 45 61 0 7
7 16 15 19 8 4 15 12 15 20 0 8 4 14 8 14 8 0 82 95 82 105 0 3 19 34 42 68
l43 62 -4 215 -3 215 -61 70 c-33 38 -66 75 -72 80 -5 6 -53 60 -104 120 -52
61 -99 115 -105 120 -6 6 -54 60 -106 120 -52 61 -111 128 -131 150 -32 34
-88 104 -154 190 -8 10 -15 23 -15 27 0 10 -30 11 -31 1z"/>
<path d="M1878 3472 c-21 -31 -55 -75 -76 -97 -21 -22 -80 -89 -132 -150 -52
-60 -104 -119 -115 -130 -11 -11 -53 -59 -93 -107 -40 -48 -90 -104 -111 -125
-20 -21 -61 -67 -91 -103 -29 -36 -63 -74 -75 -86 -36 -34 -44 -80 -46 -261
l-2 -173 36 -72 c19 -40 37 -89 40 -108 9 -61 35 -109 92 -169 22 -23 44 -50
50 -59 17 -30 99 -132 106 -132 4 0 19 -20 33 -45 15 -25 31 -45 35 -45 5 0
14 -14 22 -31 19 -48 146 -142 273 -203 127 -61 251 -108 260 -99 10 11 7 23
-7 23 -7 0 -20 9 -30 20 -9 11 -24 20 -32 20 -8 0 -15 4 -15 9 0 5 -12 14 -27
20 -16 6 -36 15 -45 21 -46 26 -54 31 -68 36 -8 3 -22 10 -30 15 -8 5 -22 12
-30 15 -8 3 -22 10 -30 15 -8 5 -25 13 -37 19 -12 5 -44 37 -70 71 -27 35 -56
70 -65 78 -10 9 -18 20 -18 26 0 6 -14 25 -30 44 -17 18 -57 67 -89 109 -32
42 -70 91 -84 107 -91 107 -119 144 -132 171 -10 22 -16 83 -19 202 l-5 171
31 43 c32 44 59 76 113 132 17 17 55 60 85 96 54 63 113 131 137 155 7 7 44
50 83 95 39 45 76 88 83 95 31 32 124 141 144 168 13 17 29 34 35 39 9 5 13
40 13 120 0 137 -11 147 -67 60z"/>
<path d="M2120 3502 c0 -15 5 -43 11 -62 6 -19 12 -87 15 -150 2 -63 11 -200
19 -305 8 -104 21 -289 30 -410 37 -519 46 -647 57 -775 6 -74 12 -172 13
-218 3 -108 16 -122 48 -51 24 54 24 55 17 264 -5 116 -13 269 -19 340 -25
305 -33 409 -41 565 -5 91 -14 203 -20 250 -5 47 -10 125 -10 173 0 49 -4 96
-9 105 -15 30 -24 152 -11 152 13 0 79 -48 120 -88 13 -13 44 -35 67 -49 24
-14 43 -29 43 -34 0 -5 5 -9 11 -9 5 0 46 -27 89 -60 43 -33 83 -60 89 -60 5
0 14 -6 18 -14 4 -7 31 -29 58 -47 43 -28 239 -172 270 -197 6 -4 18 -11 28
-15 21 -8 23 -53 1 -65 -14 -8 -26 -25 -54 -77 -6 -11 -19 -33 -30 -50 -11
-16 -24 -39 -30 -50 -6 -11 -19 -33 -30 -50 -11 -16 -31 -52 -45 -80 -14 -27
-35 -63 -45 -80 -11 -16 -24 -39 -30 -50 -6 -11 -26 -47 -45 -80 -19 -33 -39
-69 -45 -80 -6 -11 -19 -33 -30 -50 -11 -16 -31 -52 -45 -80 -14 -27 -35 -63
-45 -80 -11 -16 -30 -50 -42 -75 -13 -25 -32 -61 -43 -80 -20 -36 -45 -99 -45
-113 0 -27 96 82 131 148 8 16 54 95 100 175 47 80 107 183 132 230 62 112 92
162 135 230 72 112 128 219 135 261 3 14 8 55 12 91 6 57 5 66 -11 72 -10 4
-52 32 -93 62 -311 226 -425 309 -517 374 -58 41 -150 108 -204 148 -54 39
-101 72 -104 72 -3 0 -6 -12 -6 -28z"/>
<path d="M6702 3486 c5 -21 261 -286 277 -286 12 0 116 -48 171 -80 8 -4 47
-23 85 -40 138 -64 200 -93 215 -101 8 -5 22 -12 30 -15 68 -26 97 -40 111
-51 21 -17 69 -16 93 2 11 8 27 15 35 15 9 0 35 8 58 18 43 17 58 42 26 42
-10 0 -31 7 -47 15 -15 8 -34 15 -41 15 -7 0 -37 14 -68 30 -31 17 -63 30 -71
30 -7 0 -19 7 -26 15 -7 8 -18 15 -25 15 -11 0 -80 29 -115 49 -8 5 -35 18
-60 29 -25 11 -84 39 -133 61 -48 23 -91 41 -96 41 -5 0 -14 7 -21 15 -7 8
-20 15 -30 15 -9 0 -37 11 -61 25 -24 14 -51 28 -59 31 -35 15 -98 47 -135 70
-22 13 -48 26 -57 30 -10 3 -18 10 -18 15 0 5 -9 9 -21 9 -12 0 -19 -5 -17
-14z"/>
<path d="M1580 3461 c0 -5 -12 -14 -27 -20 -31 -13 -64 -31 -84 -48 -8 -5 -26
-13 -41 -17 -16 -3 -28 -11 -28 -16 0 -6 -11 -10 -24 -10 -13 0 -29 -7 -36
-15 -7 -8 -20 -15 -30 -15 -10 0 -23 -7 -30 -15 -7 -8 -23 -15 -35 -15 -12 0
-28 -7 -35 -15 -7 -8 -20 -15 -29 -15 -10 0 -26 -7 -37 -15 -10 -8 -26 -15
-35 -15 -9 0 -22 -7 -29 -15 -7 -8 -23 -15 -37 -15 -13 0 -26 -7 -29 -15 -4
-8 -14 -15 -23 -15 -10 0 -26 -7 -37 -15 -10 -8 -26 -15 -35 -15 -9 0 -22 -7
-29 -15 -7 -8 -23 -15 -35 -15 -12 0 -28 -7 -35 -15 -7 -8 -20 -15 -29 -15
-10 0 -26 -7 -37 -15 -10 -8 -26 -15 -35 -15 -9 0 -22 -7 -29 -15 -7 -8 -23
-15 -35 -15 -12 0 -28 -7 -35 -15 -7 -8 -25 -15 -41 -15 -15 0 -31 -5 -34 -11
-9 -14 24 -49 46 -49 16 0 45 -11 115 -42 13 -6 28 -6 40 0 11 5 36 16 57 26
20 9 54 23 75 32 20 10 44 21 52 26 8 4 22 11 30 14 19 7 136 61 173 80 16 8
34 14 42 14 7 0 18 7 25 15 7 8 20 15 30 15 10 0 23 7 30 15 7 8 20 15 30 15
10 0 23 7 30 15 7 8 20 15 28 15 16 0 292 277 292 293 0 4 -13 7 -30 7 -16 0
-30 -4 -30 -9z"/>
<path d="M2816 3263 c-12 -12 -6 -33 9 -33 8 0 15 6 15 14 0 17 -14 28 -24 19z"/>
<path d="M6340 3223 c-13 -44 -34 -248 -50 -478 -6 -88 -15 -212 -20 -275 -5
-63 -17 -205 -25 -315 -8 -110 -20 -243 -25 -295 -6 -52 -12 -131 -14 -175 -3
-44 -10 -130 -16 -190 -11 -100 -10 -115 6 -150 14 -32 18 -36 22 -20 2 10 11
29 19 41 10 16 17 71 22 186 5 89 6 168 4 175 -3 7 0 19 6 26 6 8 15 95 21
200 5 102 12 191 15 199 3 7 9 90 15 183 11 206 25 392 47 625 15 169 13 283
-7 295 -5 3 -14 -11 -20 -32z"/>
<path d="M1976 3194 c-9 -67 -7 -168 5 -249 5 -38 12 -128 15 -200 3 -71 11
-192 19 -269 8 -76 15 -173 15 -215 0 -42 7 -134 15 -206 8 -71 15 -165 15
-208 0 -43 6 -140 14 -215 8 -75 18 -181 21 -234 7 -106 21 -120 46 -46 16 51
17 86 1 218 -6 58 -19 211 -27 340 -23 371 -44 658 -49 682 -3 13 -7 84 -10
158 -11 271 -37 479 -62 487 -7 2 -14 -16 -18 -43z"/>
<path d="M4483 3194 c-4 -16 -8 -168 -8 -339 0 -252 3 -315 14 -335 l15 -25 8
35 c14 61 21 420 10 549 -10 127 -24 168 -39 115z"/>
<path d="M3846 3192 c-17 -28 -28 -238 -22 -437 6 -220 11 -268 30 -262 20 7
24 58 24 357 1 217 -2 303 -12 325 -8 20 -15 25 -20 17z"/>
<path d="M7005 3091 c-3 -5 0 -13 5 -16 6 -4 15 -17 20 -30 13 -35 161 -214
220 -268 63 -56 87 -59 184 -23 73 26 159 86 146 100 -6 6 -14 5 -22 -1 -7 -6
-30 -14 -52 -17 -41 -8 -47 -10 -113 -44 -23 -12 -47 -22 -54 -22 -12 0 -34
23 -94 94 -50 61 -219 236 -226 236 -5 0 -10 -4 -14 -9z"/>
<path d="M1225 2987 c-89 -92 -159 -170 -178 -198 -14 -19 -21 -21 -60 -15
-25 4 -51 14 -57 21 -7 8 -25 15 -41 15 -15 0 -31 5 -34 10 -8 13 -52 13 -60
1 -7 -12 62 -53 139 -82 77 -28 112 -18 186 54 118 114 223 267 183 267 -5 0
-39 -33 -78 -73z"/>
<path d="M4839 2741 c-24 -17 -59 -44 -77 -60 -18 -17 -37 -31 -43 -31 -5 0
-45 -36 -90 -81 -61 -59 -79 -83 -70 -92 8 -8 22 -5 53 13 24 12 50 29 59 36
8 8 21 14 27 14 20 0 166 139 189 180 33 58 18 65 -48 21z"/>
<path d="M3445 2739 c-17 -27 97 -138 242 -234 77 -52 113 -66 113 -46 0 11
-165 167 -200 189 -14 9 -44 33 -68 53 -44 38 -78 53 -87 38z"/>
<path d="M5025 2668 c-11 -6 -24 -17 -30 -23 -19 -22 -93 -75 -104 -75 -6 0
-11 -4 -11 -9 0 -5 -8 -11 -17 -15 -31 -10 -110 -66 -167 -118 -17 -16 -36
-28 -42 -28 -7 0 -14 -7 -18 -15 -3 -8 -10 -15 -15 -15 -13 0 -114 -99 -137
-135 -18 -27 -19 -56 -22 -472 -4 -495 1 -559 45 -604 24 -24 36 -28 78 -28
65 1 158 21 162 35 8 24 -147 32 -191 9 -16 -9 -31 -14 -33 -11 -7 7 -8 1066
-1 1066 4 0 15 8 25 18 10 10 46 40 81 66 35 27 74 58 87 70 12 11 48 39 78
61 30 22 63 52 73 67 16 23 52 43 61 34 3 -3 -6 -77 -28 -218 -6 -40 -15 -118
-20 -173 -5 -55 -11 -111 -14 -125 -3 -14 -9 -72 -14 -130 -5 -58 -14 -118
-20 -133 -6 -16 -11 -58 -11 -95 -1 -37 -7 -96 -15 -132 -8 -36 -14 -98 -15
-138 0 -40 -4 -81 -9 -91 -6 -10 -13 -41 -17 -69 l-7 -52 51 0 c63 0 72 13 72
102 0 35 7 98 15 141 8 43 15 107 15 142 0 35 4 76 10 90 5 14 12 59 15 98 5
67 17 166 46 377 6 47 15 126 19 175 11 135 38 308 55 348 8 20 -1 21 -30 5z"/>
<path d="M3290 2646 c0 -7 7 -30 15 -49 8 -20 15 -65 15 -99 0 -35 5 -83 11
-108 6 -25 14 -94 19 -155 10 -124 24 -245 46 -387 8 -53 14 -119 14 -145 0
-26 7 -83 15 -126 8 -43 15 -106 15 -140 0 -34 4 -78 10 -97 5 -19 11 -61 13
-93 5 -66 4 -65 46 -77 37 -10 48 3 36 48 -4 15 -11 68 -15 117 -11 114 -27
251 -46 385 -8 58 -14 123 -14 145 0 22 -7 78 -15 125 -8 47 -15 108 -15 135
0 28 -5 68 -10 90 -5 22 -14 81 -20 132 -5 50 -15 103 -22 117 -8 20 -9 29 0
38 13 13 3 20 218 -162 219 -185 234 -195 234 -147 0 37 -23 60 -183 187 -84
67 -169 135 -191 153 -21 18 -46 36 -55 41 -9 5 -34 27 -56 48 -41 39 -65 48
-65 24z"/>
<path d="M5216 2588 c-2 -7 -7 -67 -10 -134 -4 -90 -1 -126 9 -145 7 -13 25
-47 39 -76 14 -28 31 -55 36 -58 6 -3 10 -15 10 -26 0 -11 7 -22 15 -25 8 -4
15 -14 15 -24 0 -11 5 -22 11 -25 5 -4 15 -17 20 -28 5 -12 18 -35 29 -52 11
-16 22 -37 26 -45 3 -8 10 -22 15 -30 5 -8 14 -24 19 -35 6 -11 19 -33 30 -50
10 -16 31 -52 45 -80 14 -27 35 -63 45 -80 11 -16 23 -37 27 -45 4 -8 25 -46
48 -85 22 -38 44 -77 48 -85 4 -8 16 -28 27 -45 11 -16 22 -37 26 -45 3 -8 10
-22 15 -30 5 -8 13 -24 19 -35 25 -54 40 -61 128 -57 63 3 82 7 82 18 0 8 -5
14 -10 14 -6 0 -13 8 -17 18 -3 9 -18 33 -32 52 -15 19 -37 55 -49 80 -13 25
-32 59 -42 75 -11 17 -24 39 -30 50 -6 11 -26 47 -45 80 -19 33 -37 67 -41 75
-10 19 -91 160 -104 180 -6 8 -13 22 -17 30 -4 8 -25 47 -48 85 -22 39 -44 77
-48 85 -4 8 -17 31 -28 50 -12 19 -32 55 -46 80 -13 25 -33 59 -43 75 -10 17
-36 64 -57 105 -21 41 -44 81 -50 88 -7 7 -13 22 -13 31 0 10 -7 24 -15 31 -8
7 -15 18 -15 26 0 18 -19 28 -24 12z"/>
<path d="M3104 2552 c-16 -24 -39 -67 -125 -232 -13 -25 -30 -49 -36 -53 -7
-4 -13 -16 -13 -25 0 -10 -5 -23 -11 -29 -13 -13 -23 -30 -59 -100 -14 -26
-31 -52 -37 -56 -7 -4 -13 -17 -13 -27 0 -10 -5 -22 -11 -25 -5 -4 -14 -17
-20 -28 -9 -23 -14 -31 -61 -105 -16 -24 -28 -47 -28 -52 0 -5 -12 -26 -26
-47 -14 -21 -30 -47 -35 -58 -5 -11 -18 -33 -29 -50 -11 -16 -22 -37 -26 -45
-3 -8 -10 -22 -15 -30 -5 -8 -14 -24 -19 -35 -6 -11 -19 -33 -30 -50 -11 -16
-24 -40 -29 -52 -5 -11 -15 -24 -20 -28 -6 -3 -11 -13 -11 -22 0 -8 -13 -32
-30 -53 -16 -21 -30 -42 -30 -48 0 -5 -7 -15 -15 -22 -8 -7 -15 -23 -15 -35 0
-22 3 -23 70 -20 72 3 95 13 111 50 5 11 18 34 29 50 11 17 24 40 29 52 5 11
15 24 20 28 6 3 11 12 11 20 0 8 12 31 26 52 14 21 30 47 35 58 5 11 18 34 29
50 11 17 24 39 30 50 6 11 26 47 45 80 19 33 39 69 45 80 6 11 19 34 30 50 10
17 31 53 45 80 14 28 34 64 45 80 10 17 30 50 43 75 14 25 34 61 45 80 12 19
33 59 47 88 15 28 31 52 36 52 12 0 12 267 0 274 -5 3 -17 -7 -27 -22z"/>
<path d="M956 2444 c-3 -26 -6 -101 -6 -168 l0 -121 46 -44 c37 -36 44 -48 40
-70 -5 -21 4 -36 44 -81 28 -30 50 -58 50 -62 0 -5 11 -21 24 -36 53 -59 66
-75 66 -82 0 -3 13 -19 28 -36 15 -16 50 -58 77 -94 27 -36 57 -74 67 -84 10
-11 30 -37 45 -60 16 -22 41 -54 56 -70 39 -43 49 -55 87 -106 19 -25 37 -47
41 -50 3 -3 11 -15 17 -27 7 -11 33 -31 59 -43 72 -34 302 -148 352 -176 24
-13 53 -24 63 -24 16 0 18 5 12 38 -7 39 -32 81 -49 82 -10 0 -278 133 -389
193 -52 28 -126 88 -126 103 0 9 -74 104 -82 104 -4 0 -8 4 -8 9 0 6 -13 25
-30 43 -16 18 -30 38 -30 44 0 7 -7 14 -15 18 -8 3 -15 12 -15 21 0 8 -7 15
-15 15 -8 0 -15 6 -15 14 0 8 -7 16 -15 20 -8 3 -15 11 -15 18 0 8 -13 28 -30
46 -16 18 -30 36 -30 40 -1 4 -14 18 -30 32 -17 13 -30 29 -30 35 0 6 -13 25
-30 43 -16 18 -30 35 -30 37 0 2 -13 18 -30 35 -17 18 -30 41 -30 56 0 14 -7
39 -16 56 -27 52 -44 136 -44 218 0 130 -49 217 -64 114z"/>
<path d="M5132 2207 c-19 -49 -60 -306 -68 -427 -2 -30 -13 -127 -25 -215 -39
-283 -36 -350 17 -388 24 -18 40 -18 331 -7 311 13 354 17 361 38 7 21 -49 35
-89 21 -20 -6 -41 -9 -46 -6 -5 3 -119 2 -254 -3 -176 -6 -252 -12 -268 -22
-44 -27 -47 16 -15 175 8 38 14 89 14 115 0 26 7 82 15 125 8 43 15 104 15
135 0 32 5 75 10 97 10 38 25 175 36 331 3 40 1 74 -4 78 -5 3 -18 -18 -30
-47z"/>
<path d="M3186 2241 c-13 -20 -11 -194 3 -218 6 -12 11 -55 11 -95 0 -40 5
-91 10 -113 6 -22 14 -96 20 -164 5 -68 15 -130 21 -137 6 -7 9 -17 6 -21 -10
-17 13 -217 28 -250 26 -55 16 -66 -57 -58 -35 3 -108 8 -163 10 -55 3 -149
10 -210 16 -126 12 -270 8 -287 -9 -8 -8 -5 -12 13 -17 84 -20 584 -51 654
-40 29 4 55 16 72 32 l26 27 -8 115 c-4 64 -9 127 -11 141 -6 52 -14 119 -28
240 -39 343 -51 421 -74 495 -12 41 -20 56 -26 46z"/>
<path d="M3834 2143 c-5 -10 -11 -216 -13 -458 -5 -547 -3 -515 -21 -524 -8
-4 -45 -5 -81 -2 -89 8 -166 -5 -146 -25 4 -4 49 -11 101 -17 109 -11 136 -4
176 46 l25 31 3 463 c3 449 0 503 -27 503 -5 0 -13 -8 -17 -17z"/>
<path d="M5837 1083 c-4 -4 -96 -10 -205 -14 -108 -4 -226 -9 -262 -12 -36 -3
-159 -8 -275 -12 -115 -4 -271 -10 -345 -13 -155 -8 -164 -15 -107 -77 l33
-36 160 5 c87 3 186 8 219 10 33 2 98 7 145 11 47 3 155 8 240 10 245 6 347
18 371 44 11 11 30 28 43 37 34 22 41 54 12 54 -13 0 -26 -3 -29 -7z"/>
<path d="M2450 1058 c0 -7 17 -24 38 -37 20 -14 55 -42 77 -62 l40 -37 150 -6
c83 -2 175 -7 205 -10 30 -3 150 -8 265 -11 116 -3 221 -8 235 -12 14 -3 45
-6 70 -4 25 1 59 -2 77 -8 30 -9 33 -7 58 29 14 20 37 48 50 60 50 47 42 49
-202 53 -126 3 -253 7 -283 10 -30 4 -149 9 -265 12 -115 3 -235 10 -265 15
-30 6 -68 11 -85 10 -16 0 -60 3 -97 6 -53 4 -68 3 -68 -8z"/>
<path d="M5976 920 l-48 -50 -3 -117 c-2 -65 -6 -125 -9 -133 -4 -8 -50 -51
-103 -95 -53 -44 -126 -108 -162 -143 l-65 -63 -115 -5 c-63 -2 -117 -6 -119
-9 -30 -30 173 -46 263 -21 78 21 165 78 165 107 0 5 14 16 30 24 48 25 104
93 112 135 7 38 62 130 78 130 21 0 40 62 41 132 1 40 4 84 8 98 9 31 3 60
-13 60 -7 0 -34 -22 -60 -50z"/>
<path d="M2299 943 c-1 -5 -1 -62 1 -128 2 -110 4 -122 25 -141 12 -11 26 -30
29 -42 4 -11 14 -23 22 -26 8 -3 13 -10 9 -16 -12 -19 25 -67 112 -146 163
-149 253 -201 329 -189 24 3 44 10 44 14 0 9 -49 21 -84 21 -12 0 -35 13 -52
28 -16 15 -78 70 -139 122 -60 52 -117 102 -125 110 -9 8 -29 26 -46 40 -29
25 -31 31 -37 118 -5 72 -4 92 6 92 7 0 49 -35 93 -77 44 -43 115 -109 158
-148 44 -38 93 -83 110 -98 17 -16 55 -49 85 -75 30 -26 73 -64 96 -84 44 -39
81 -49 91 -23 4 8 -9 27 -32 47 -21 18 -68 61 -104 95 -36 35 -68 63 -71 63
-4 0 -24 17 -46 38 -85 81 -222 202 -293 260 -41 33 -94 81 -118 106 -41 44
-60 55 -63 39z"/>
<path d="M5700 900 c0 -5 -6 -10 -13 -10 -7 0 -24 -13 -37 -30 -14 -16 -31
-29 -37 -30 -7 0 -13 -4 -13 -8 0 -5 -19 -23 -42 -40 -46 -33 -103 -83 -185
-162 -28 -28 -74 -68 -103 -91 -29 -23 -79 -68 -111 -100 -32 -32 -65 -59 -73
-59 -8 0 -27 21 -42 48 -15 26 -34 53 -42 61 -7 8 -25 33 -39 55 -14 23 -31
46 -37 51 -7 6 -29 34 -49 63 -21 28 -46 62 -56 75 -11 12 -38 46 -60 75 -63
79 -93 68 -48 -19 30 -59 217 -311 281 -377 62 -65 88 -77 130 -61 44 17 145
79 183 110 17 15 48 33 67 40 26 10 36 19 36 35 0 22 17 34 50 34 13 0 20 9
22 28 2 20 16 35 53 59 66 43 104 75 104 91 1 7 8 15 16 18 8 4 15 13 15 21 0
7 11 35 25 61 27 50 31 72 15 72 -5 0 -10 -4 -10 -10z"/>
<path d="M2650 840 c0 -23 51 -88 117 -150 301 -284 422 -380 478 -380 25 0
124 89 167 151 18 26 62 84 97 131 83 110 126 187 111 202 -7 7 -26 -6 -65
-46 -30 -31 -55 -59 -55 -63 0 -10 -62 -88 -77 -98 -7 -4 -13 -13 -13 -19 0
-10 -57 -88 -73 -99 -5 -4 -14 -15 -20 -26 -39 -67 -63 -103 -69 -103 -4 0
-36 28 -71 63 -36 34 -94 87 -128 119 -35 31 -87 79 -116 107 -28 28 -54 51
-58 51 -4 0 -20 12 -36 28 -16 15 -45 41 -65 57 -20 17 -51 42 -68 57 -32 28
-56 36 -56 18z"/>
<path d="M5810 803 c-19 -15 -46 -38 -60 -50 -14 -13 -30 -23 -37 -23 -7 0
-13 -7 -13 -15 0 -8 -7 -15 -15 -15 -8 0 -15 -7 -15 -15 0 -8 -9 -15 -19 -15
-11 0 -31 -13 -44 -30 -14 -16 -28 -30 -31 -30 -3 0 -19 -13 -34 -30 -16 -16
-34 -30 -41 -30 -6 0 -11 -7 -11 -15 0 -8 -7 -15 -15 -15 -8 0 -15 -7 -15 -15
0 -8 -7 -15 -15 -15 -8 0 -15 -7 -15 -16 0 -10 -6 -14 -15 -10 -11 4 -15 -1
-15 -19 0 -14 -6 -25 -13 -25 -22 0 -90 -77 -84 -94 8 -20 37 -21 37 -1 0 9 8
19 18 22 18 7 23 11 137 118 39 35 75 65 80 65 6 0 22 13 35 30 14 16 28 29
31 30 6 0 94 83 222 207 42 41 -2 46 -53 6z"/>
</g>
</svg>
